<svg viewBox="0 0 24 24" xmlns="http://www.w3.org/2000/svg" fill="currentColor">
  <rect width="24" height="24" x="0" y="0" fill="rgb(255,255,255)" fill-opacity="0" />
  <g id="Group">
    <g id="Group">
      <path d="M21.1304 5.73952L18.6261 5.73952L17.2435 3.65256C16.7217 2.86996 15.8087 2.40039 14.8696 2.40039L9.13043 2.40039C8.1913 2.40039 7.27826 2.86996 6.75652 3.65256L5.37391 5.73952L2.86957 5.73952C1.27826 5.73952 0 7.01778 0 8.60909L0 18.7308C0 20.3221 1.27826 21.6004 2.86957 21.6004L21.1304 21.6004C22.7217 21.6004 24 20.3221 24 18.7308L24 8.60909C24 7.01778 22.7217 5.73952 21.1304 5.73952ZM12 19.2526C8.42609 19.2526 5.53043 16.3569 5.53043 12.783C5.53043 9.20909 8.42609 6.33952 12 6.33952C15.5739 6.33952 18.4696 9.23517 18.4696 12.8091C18.4696 16.3569 15.5739 19.2526 12 19.2526ZM20.7652 9.783C20.7391 9.783 20.713 9.783 20.6609 9.783L19.6174 9.783C19.1478 9.75691 18.7826 9.36561 18.8087 8.89604C18.8348 8.45256 19.1739 8.11343 19.6174 8.08735L20.6609 8.08735C21.1304 8.06126 21.5217 8.42648 21.5478 8.89604C21.5739 9.36561 21.2348 9.75691 20.7652 9.783Z" fill="currentColor" fill-rule="evenodd" />
    </g>
  </g>
  <g id="Group">
    <g id="Group">
      <path d="M11.9984 9.20898C10.0158 9.20898 8.39844 10.8264 8.39844 12.809C8.39844 14.7916 10.0158 16.3829 11.9984 16.3829C13.981 16.3829 15.5984 14.7655 15.5984 12.7829C15.5984 10.8003 13.981 9.20898 11.9984 9.20898Z" fill="currentColor" fill-rule="evenodd" />
    </g>
  </g>
</svg>