<svg width="228" height="44" viewBox="0 0 228 44" fill="none" xmlns="http://www.w3.org/2000/svg">
<g clip-path="url(#clip0_4118_4308)">
<path d="M33.9918 33.779C34.029 32.1282 33.652 30.3839 33.652 30.383L33.0274 30.8824C32.7435 31.1103 32.44 31.3228 32.1226 31.5035C23.239 36.5711 18.4989 32.3162 18.4952 32.3134C30.2142 34.953 35.5464 24.4438 36.1906 23.198C37.2146 21.2194 37.855 19.111 37.9751 16.9082C38.179 13.1463 37.1364 9.74215 34.6202 6.80474C30.5726 2.08036 25.3717 -0.10339 19.1068 0.00375519C18.5873 0.0128353 18.0688 0.0418818 17.5494 0.061858C11.7368 0.583055 7.42679 3.48868 4.1882 8.07413C0.131349 13.8182 -3.29808 24.1813 5.55382 33.2505C9.027 36.8099 13.2253 39.2824 17.8407 41.1502C21.0402 42.445 24.3617 43.3167 27.7604 43.925C28.0387 43.975 28.3254 44.0041 28.6075 43.9995C29.3261 43.9877 29.8884 43.7652 30.3241 43.1169C32.0285 40.579 33.4956 37.9367 33.9117 34.8913C33.962 34.5235 33.9816 34.1521 33.9909 33.778L33.9918 33.779Z" fill="url(#paint0_linear_4118_4308)"/>
<mask id="mask0_4118_4308" style="mask-type:luminance" maskUnits="userSpaceOnUse" x="0" y="0" width="38" height="44">
<path d="M33.9918 33.779C34.029 32.1282 33.652 30.3839 33.652 30.383L33.0274 30.8824C32.7435 31.1103 32.44 31.3228 32.1226 31.5035C23.239 36.5711 18.4989 32.3162 18.4952 32.3134C30.2142 34.953 35.5464 24.4438 36.1906 23.198C37.2146 21.2194 37.855 19.111 37.9751 16.9082C38.179 13.1463 37.1364 9.74215 34.6202 6.80474C30.5726 2.08036 25.3717 -0.10339 19.1068 0.00375519C18.5873 0.0128353 18.0688 0.0418818 17.5494 0.061858C11.7368 0.583055 7.42679 3.48868 4.1882 8.07413C0.131349 13.8182 -3.29808 24.1813 5.55382 33.2505C9.027 36.8099 13.2253 39.2824 17.8407 41.1502C21.0402 42.445 24.3617 43.3167 27.7604 43.925C28.0387 43.975 28.3254 44.0041 28.6075 43.9995C29.3261 43.9877 29.8884 43.7652 30.3241 43.1169C32.0285 40.579 33.4956 37.9367 33.9117 34.8913C33.962 34.5235 33.9816 34.1521 33.9909 33.778L33.9918 33.779Z" fill="white"/>
</mask>
<g mask="url(#mask0_4118_4308)">
<path d="M25.2776 32.0177C33.4453 30.6326 38.8377 22.4524 37.3221 13.7468C35.8064 5.04124 27.9565 -0.893158 19.7888 0.491982C11.6212 1.87712 6.2287 10.0573 7.74438 18.7629C9.26006 27.4685 17.11 33.4029 25.2776 32.0177Z" fill="url(#paint1_linear_4118_4308)"/>
<path d="M18.771 -6.88433C13.7206 -5.59251 8.66475 -3.20142 5.09783 0.686943C1.03244 5.11802 -0.61255 11.0049 -0.94764 16.8946C-1.26611 22.5023 -0.118691 28.076 2.1374 33.1981C4.33718 38.1912 7.88194 42.4132 12.1993 45.7146C16.9155 49.321 22.5631 51.4172 28.4581 51.9885C30.3071 52.1672 32.0777 50.236 31.9974 48.4558C31.9051 46.3881 30.4382 45.1147 28.4581 44.9231C28.1941 44.8973 27.9043 44.8945 27.6449 44.8355C28.5708 45.0456 27.6874 44.8356 27.5073 44.8061C26.9701 44.7167 26.4365 44.6107 25.9057 44.4891C24.7565 44.2247 23.6257 43.8856 22.5198 43.4756C22.2641 43.3807 22.0121 43.2793 21.7582 43.1807C20.8997 42.8471 22.433 43.5069 21.6022 43.1097C21.1102 42.8748 20.6154 42.649 20.1317 42.3975C19.1642 41.8944 18.2254 41.337 17.3199 40.7288C16.874 40.4284 16.394 40.1317 15.9878 39.7788C16.6515 40.3556 15.961 39.7502 15.8466 39.6572C15.6352 39.4849 15.4265 39.3089 15.2207 39.1311C14.3271 38.358 13.4797 37.5315 12.6877 36.6553C12.3212 36.2508 11.976 35.8306 11.6261 35.4113C11.0381 34.7065 12.0452 36.0121 11.5126 35.2639C11.4073 35.1156 11.2974 34.9709 11.1922 34.8234C10.4583 33.7942 9.79463 32.7153 9.20199 31.5994C8.92875 31.0844 8.67027 30.5619 8.42841 30.0321C8.3758 29.9178 7.99917 29.0185 8.32042 29.8073C8.21057 29.5373 8.10256 29.2664 7.99917 28.9937C7.55054 27.8115 7.17576 26.6026 6.8739 25.3744C6.62005 24.3405 6.38465 23.2809 6.26649 22.2222C6.36711 23.1252 6.26649 22.143 6.2508 22.002C6.22034 21.7117 6.19448 21.4206 6.17233 21.1294C6.12063 20.4494 6.09017 19.7685 6.08186 19.0866C6.06802 17.9183 6.11693 16.749 6.23232 15.5862C6.26094 15.2978 6.28217 15.002 6.33018 14.7154C6.17879 15.6111 6.34956 14.6399 6.37264 14.4989C6.47233 13.8991 6.58865 13.3011 6.72527 12.7086C6.99944 11.5237 7.35391 10.3572 7.81085 9.23029C7.50346 9.98769 7.89855 9.06534 7.94563 8.96675C8.07763 8.69401 8.2161 8.42496 8.36195 8.15959C8.69058 7.56252 9.06629 7.00415 9.44938 6.44209C9.96079 5.69298 8.96198 6.97282 9.56477 6.29742C9.80663 6.02745 10.0365 5.74917 10.2857 5.48565C10.6587 5.09128 11.051 4.71443 11.4581 4.356C11.6621 4.17632 11.8735 4.00494 12.0812 3.82987C12.3886 3.5857 12.3646 3.60321 12.011 3.88148C12.1569 3.77275 12.3046 3.66587 12.4532 3.56175C12.9766 3.19318 13.5157 2.8495 14.0686 2.527C14.6216 2.20451 15.1939 1.90228 15.7736 1.62217C16.0229 1.50146 16.2758 1.38997 16.5269 1.27295C16.8915 1.11447 16.8648 1.12461 16.4457 1.30244C16.6164 1.23241 16.7882 1.16423 16.9608 1.09697C18.1654 0.630733 19.3987 0.250174 20.6495 -0.0695562C22.4431 -0.52842 23.7032 -2.62279 23.1216 -4.41586C22.5225 -6.26421 20.6901 -7.37544 18.7673 -6.88341L18.771 -6.88433Z" fill="url(#paint2_linear_4118_4308)"/>
<path d="M1.50038 8C1.88503 8 2.28844 7.77684 2.5605 7.41396C2.7067 7.23252 2.80989 7.01877 2.87009 6.77059C2.96391 6.53285 3.00692 6.2753 2.9991 6.00001C2.9819 5.48281 2.85446 4.94683 2.55972 4.58604C2.26498 4.22525 1.90613 4 1.4996 4C1.11496 4 0.711563 4.22316 0.439498 4.58604C0.293302 4.76748 0.190108 4.98123 0.12991 5.22941C0.0360942 5.46715 -0.00691608 5.72473 0.00090188 6.00001C0.0181014 6.51722 0.145543 7.05317 0.440281 7.41396C0.735018 7.77475 1.09385 8 1.50038 8Z" fill="#E02C7D"/>
<path d="M12.6444 -5.87457C8.63143 -4.74458 5.14833 -2.02033 2.44263 1.1572C-0.265752 4.33656 -2.31291 7.99759 -3.60143 12.0084C-6.27496 20.3313 -5.03826 29.7824 -0.551692 37.2043C1.87879 41.2252 5.07595 44.6967 8.35979 47.9896C9.64205 49.2752 11.9439 49.397 13.2056 47.9896C14.4503 46.6004 14.5745 44.3963 13.2056 43.0236C11.9054 41.7197 10.6205 40.3983 9.39633 39.0192C8.80122 38.3489 8.22039 37.6658 7.66012 36.9662C7.50464 36.7721 7.35275 36.5752 7.19816 36.3802C7.11595 36.2767 6.81303 35.8481 7.19369 36.3774C6.90328 35.9745 6.6102 35.5743 6.33141 35.1632C5.28326 33.622 4.4326 32.0039 3.63286 30.319C3.40143 29.8318 3.81067 30.8117 3.6257 30.3053C3.53724 30.0644 3.44073 29.8273 3.35406 29.5855C3.21466 29.1991 3.08421 28.8099 2.96269 28.418C2.65888 27.4373 2.40957 26.4382 2.21745 25.4282C2.14061 25.0244 2.07537 24.6178 2.01282 24.2112C2.13703 25.0262 1.95742 23.6261 1.94312 23.4576C1.86181 22.4833 1.83232 21.5044 1.85466 20.5273C1.86538 20.064 1.88862 19.6015 1.92257 19.14C1.94134 18.8836 1.97083 18.6281 1.99048 18.3717C2.00121 18.2279 2.07538 17.6794 1.97888 18.3854C2.10487 17.4633 2.28179 16.5476 2.50518 15.6447C2.70891 14.8205 2.95107 14.0065 3.23165 13.2062C3.37194 12.806 3.52117 12.4095 3.67843 12.0157C3.63197 12.1311 3.39158 12.6686 3.66144 12.0734C3.77849 11.8161 3.89289 11.5588 4.01441 11.3033C4.74535 9.7695 5.62638 8.33272 6.60751 6.95549C6.18038 7.55436 6.55033 7.03059 6.66649 6.88316C6.84074 6.66248 7.01766 6.44544 7.19816 6.23025C7.49929 5.8722 7.80935 5.52332 8.12924 5.18268C8.80835 4.45835 9.53035 3.78529 10.2809 3.13879C10.7706 2.71665 10.3632 3.06921 10.2595 3.14705C10.4883 2.97397 10.7179 2.80181 10.9529 2.63699C11.3434 2.36319 11.7446 2.10496 12.1574 1.86688C12.5685 1.62879 12.9893 1.41176 13.42 1.21488C12.7552 1.51706 13.345 1.25884 13.5201 1.19565C13.832 1.08302 14.1474 0.986868 14.4664 0.897129C16.1936 0.410884 17.4294 -1.61833 16.8593 -3.42229C16.2875 -5.23357 14.4959 -6.39653 12.6444 -5.87457Z" fill="#F980C2"/>
<path d="M14.8607 6.7002C14.8749 8.5594 15.1889 10.372 15.6169 12.169C15.7319 12.6509 15.8275 13.1411 15.8894 13.6331C16.0247 14.7067 15.5206 15.5481 14.5503 15.9194C13.6685 16.2577 12.4054 15.4822 12.2206 14.5092C11.988 13.2865 12.3577 12.1196 12.5116 10.9353C12.7 9.48946 12.7707 8.04271 12.6787 6.59138C12.6009 5.36228 12.1525 4.88672 11.1875 4.9105C10.5914 4.92513 10.15 5.21413 9.88997 5.76466C9.71396 6.13687 9.59368 6.53651 9.41679 6.9078C9.14702 7.47388 8.75872 7.5891 8.23246 7.29097C6.89425 6.53376 6.4131 6.77702 5.98059 8.31705C5.6781 9.39434 5.78159 10.4332 6.02924 11.4886C6.23267 12.3537 6.50155 13.2097 6.49359 14.1132C6.48828 14.7689 6.13007 15.2847 5.65068 15.3908C4.81485 15.5755 4.16653 15.067 4.14088 14.1791C4.11611 13.3185 4.408 12.5046 4.53094 11.666C4.64681 10.8759 4.77947 10.0217 4.28152 9.3788C3.75791 8.70207 4.04979 8.32528 4.46726 7.83419C6.61565 5.30831 9.05327 3.14277 11.8305 1.38234C12.6495 0.8629 13.5172 0.622378 14.468 0.552875C16.4395 0.407468 18.4075 0.211766 20.3763 0.0297785C20.5355 0.0151464 20.6974 -0.0653304 20.8053 0.121229C20.9017 0.28767 20.8248 0.43672 20.7443 0.585785C20.0544 1.86335 20.2401 3.17112 20.6107 4.48984C20.7452 4.9663 20.8813 5.44459 20.968 5.93202C21.0176 6.21095 21.0061 6.51548 20.9574 6.79715C20.8141 7.63484 20.1702 8.25486 19.521 8.22194C18.8108 8.18627 18.1713 7.46291 18.1023 6.61608C18.0634 6.13321 18.1819 5.66773 18.2589 5.19859C18.3526 4.62427 18.4004 4.04996 17.8812 3.6677C17.3426 3.2708 16.7279 3.34669 16.1565 3.58263C15.3578 3.91186 14.8439 4.85473 14.8607 5.83325C14.866 6.12315 14.8607 6.41305 14.8607 6.70295V6.7002Z" fill="url(#paint3_linear_4118_4308)"/>
<path d="M36.8607 -3.29981C36.8749 -1.44061 37.1889 0.371948 37.6169 2.16896C37.7319 2.6509 37.8275 3.14108 37.8894 3.63308C38.0247 4.70672 37.5206 5.54806 36.5503 5.91935C35.6685 6.25772 34.4054 5.4822 34.2206 4.50917C33.988 3.28647 34.3577 2.11957 34.5116 0.935286C34.7 -0.510551 34.7707 -1.9573 34.6787 -3.40863C34.6009 -4.63773 34.1525 -5.11328 33.1875 -5.0895C32.5914 -5.07487 32.15 -4.78588 31.89 -4.23535C31.714 -3.86314 31.5937 -3.4635 31.4168 -3.09221C31.147 -2.52613 30.7587 -2.41091 30.2325 -2.70904C28.8942 -3.46625 28.4131 -3.22299 27.9806 -1.68296C27.6781 -0.605672 27.7816 0.433203 28.0292 1.48855C28.2327 2.35367 28.5015 3.20967 28.4936 4.1132C28.4883 4.7689 28.1301 5.28468 27.6507 5.39077C26.8149 5.5755 26.1665 5.06703 26.1409 4.17904C26.1161 3.31849 26.408 2.50458 26.5309 1.66598C26.6468 0.875842 26.7795 0.0216904 26.2815 -0.621208C25.7579 -1.29794 26.0498 -1.67473 26.4673 -2.16582C28.6157 -4.6917 31.0533 -6.85726 33.8305 -8.61768C34.6495 -9.13712 35.5172 -9.37762 36.468 -9.44713C38.4395 -9.59253 40.4075 -9.78823 42.3763 -9.97022C42.5355 -9.98485 42.6974 -10.0653 42.8053 -9.87877C42.9017 -9.71233 42.8248 -9.56328 42.7443 -9.41422C42.0544 -8.13665 42.2401 -6.82888 42.6107 -5.51016C42.7452 -5.03371 42.8813 -4.55544 42.968 -4.06801C43.0176 -3.78908 43.0061 -3.48453 42.9574 -3.20286C42.8141 -2.36517 42.1702 -1.74515 41.521 -1.77807C40.8108 -1.81374 40.1713 -2.5371 40.1023 -3.38393C40.0634 -3.86679 40.1819 -4.33228 40.2589 -4.80142C40.3526 -5.37573 40.4004 -5.95006 39.8812 -6.33233C39.3426 -6.72922 38.7279 -6.65331 38.1565 -6.41737C37.3578 -6.08815 36.8439 -5.14528 36.8607 -4.16676C36.866 -3.87686 36.8607 -3.58696 36.8607 -3.29706V-3.29981Z" fill="url(#paint4_linear_4118_4308)"/>
<path d="M33.5814 1.3506C32.8215 0.452674 32.017 -0.403902 31.1849 -1.23106C30.9218 -1.49207 30.6552 -1.74941 30.3912 -2.00858C30.219 -2.17769 29.691 -2.81369 30.1985 -2.13083C29.6375 -2.88446 28.7269 -3.28608 27.8591 -2.76313C27.1394 -2.32933 26.6801 -1.11249 27.2455 -0.352429C28.0741 0.760558 29.1898 1.65388 30.1263 2.67036C31.9118 4.60867 33.1256 6.18027 34.4188 8.58087C35.7575 11.066 36.628 13.8324 36.6111 16.6861C36.5905 20.1491 35.1564 23.5543 32.9999 26.3657C29.8989 30.4077 25.6428 33.4112 20.4548 32.9618C20.297 32.948 20.1463 32.9738 20 33.0142C20.0062 33.016 20.0125 33.0151 20.0187 33.0169C22.6471 33.7255 25.0854 34.4442 27.7825 33.6566C30.1236 32.9728 32.3203 31.6558 34.1575 30.0236C34.3207 29.8783 34.4964 29.803 34.6712 29.7717C37.2113 26.7985 39.2296 23.2427 39.8102 19.2916C40.8019 12.5494 37.7865 6.31446 33.5814 1.34968V1.3506Z" fill="#FC81C5"/>
</g>
<path d="M33 1.6485C40.2675 6.69711 44.0082 16.4622 38.1876 26.3851C37.7747 27.0898 37.3109 27.7945 36.8007 28.4992C37.5055 29.1672 38.9997 30.1123 41.7936 30.0389C41.7936 30.0389 39.9629 32.0723 36.4632 31.3906C36.6024 32.1806 36.6661 32.9597 36.6661 33.7286C36.6642 36.9374 35.5365 39.982 34.0723 43C34.6525 42.7559 35.2409 42.5311 35.8121 42.2659C40.2475 40.2078 44.1746 37.4128 47.5705 33.8791C62.1165 18.7424 49.6968 -3.04226 33 1.6485Z" fill="url(#paint5_linear_4118_4308)"/>
<mask id="mask1_4118_4308" style="mask-type:luminance" maskUnits="userSpaceOnUse" x="33" y="1" width="21" height="42">
<path d="M33 1.6485C40.2675 6.69711 44.0082 16.4622 38.1876 26.3851C37.7747 27.0898 37.3109 27.7945 36.8007 28.4992C37.5055 29.1672 38.9997 30.1123 41.7936 30.0389C41.7936 30.0389 39.9629 32.0723 36.4632 31.3906C36.6024 32.1806 36.6661 32.9597 36.6661 33.7286C36.6642 36.9374 35.5365 39.982 34.0723 43C34.6525 42.7559 35.2409 42.5311 35.8121 42.2659C40.2475 40.2078 44.1746 37.4128 47.5705 33.8791C62.1165 18.7424 49.6968 -3.04226 33 1.6485Z" fill="white"/>
</mask>
<g mask="url(#mask1_4118_4308)">
<path d="M44.0968 30.1361C51.7123 28.7992 56.6978 20.6512 55.2321 11.9371C53.7664 3.22289 46.4047 -2.75754 38.7892 -1.42065C31.1736 -0.0837655 26.1882 8.06419 27.6538 16.7784C29.1195 25.4925 36.4813 31.473 44.0968 30.1361Z" fill="url(#paint6_linear_4118_4308)"/>
<path d="M32.8976 0.843413C34.7199 0.811133 36.543 0.900595 38.3497 1.14408C38.182 1.12102 38.0135 1.09796 37.8458 1.07583C39.8503 1.35159 41.841 1.78782 43.7115 2.5819L43.2587 2.38824C44.5999 2.96282 45.8654 3.70434 47.0198 4.60448L46.6362 4.30474C47.7696 5.19474 48.7837 6.22768 49.6611 7.37592L49.3649 6.98765C50.3371 8.26685 51.1316 9.67333 51.752 11.1582L51.5607 10.6998C52.3069 12.4992 52.7943 14.3991 53.054 16.3313L52.9866 15.8213C53.2964 18.1722 53.269 20.559 52.9611 22.909L53.0285 22.399C52.6604 25.164 51.9051 27.8654 50.8373 30.4358L51.0286 29.9774C49.8387 32.8263 48.268 35.5 46.4011 37.9468C46.4995 37.8177 46.5988 37.6877 46.6972 37.5585C44.6299 40.2571 42.211 42.6726 39.5432 44.7616C39.6708 44.662 39.7993 44.5614 39.9268 44.4618C37.978 45.9808 35.897 47.3191 33.7031 48.4443C32.8165 48.8989 32.4904 50.2353 33.0225 51.0709C33.6065 51.9877 34.6688 52.2459 35.6173 51.7598C38.4854 50.2888 41.1522 48.4461 43.6067 46.347C45.8918 44.3936 47.9217 42.1921 49.744 39.7951C51.281 37.7716 52.6167 35.5895 53.6981 33.2838C54.7641 31.0112 55.6297 28.6345 56.1882 26.1813C56.7093 23.8931 57.0027 21.5274 57 19.1775C56.9972 16.9612 56.733 14.7182 56.1818 12.5721C55.6616 10.5449 54.8616 8.55553 53.7929 6.76077C52.7579 5.02227 51.4541 3.40828 49.9253 2.09034C48.2115 0.612844 46.3155 -0.504963 44.2172 -1.32303C43.1348 -1.74543 42.0151 -2.04703 40.8789 -2.27945C39.0722 -2.64928 37.2272 -2.87338 35.3859 -2.95916C34.5568 -2.99789 33.7277 -3.00712 32.8976 -2.99237C31.9064 -2.97484 30.9552 -2.12173 31.0016 -1.07309C31.0481 -0.0244577 31.8353 0.86555 32.8976 0.846182V0.843413Z" fill="#F995CC"/>
<path d="M36.6555 28.9548C36.2048 28.7944 35.9149 28.4394 35.8803 28C34.7506 28.139 33.8145 29.0169 33.8537 30.2702C33.864 30.5983 33.9529 30.9172 34.0043 31.2407C33.995 31.2509 34.0296 31.7236 34.0305 31.7792C34.0333 31.972 34.0286 32.1658 34.0165 32.3586C34.0109 32.4541 34.0006 32.5505 33.9912 32.646C33.9856 32.6747 33.9781 32.7211 33.9641 32.8036C33.8678 33.2077 33.7715 33.6045 33.6228 33.9929C33.5938 34.0346 33.418 34.4063 33.3918 34.4517C33.3572 34.5129 32.9597 35.0996 33.1898 34.8049C32.5716 35.5974 32.3519 36.758 33.1898 37.5199C33.3572 37.672 33.5657 37.798 33.793 37.8935C33.6377 38.065 33.4937 38.2458 33.3319 38.4117C32.9504 38.801 32.552 39.1746 32.1368 39.5287C32.0227 39.626 31.9077 39.7215 31.7908 39.8151C31.7655 39.8355 31.6682 39.9097 31.6168 39.9505C31.4027 40.108 31.1857 40.2619 30.965 40.4102C30.128 40.9729 29.6773 42.1251 30.2702 43.0372C30.807 43.8631 32.0236 44.3294 32.9204 43.726C37.4822 40.6577 40.5384 35.818 41.9411 30.5807C42.0001 30.3619 42.0122 30.1293 41.9888 29.8975C40.1615 29.8641 38.3819 29.5694 36.6555 28.9557V28.9548ZM34.7085 30.9218C34.7094 30.9292 34.7104 30.9375 34.7113 30.945C34.7029 30.9255 34.7029 30.9042 34.6973 30.8838C34.701 30.8959 34.7057 30.9107 34.7085 30.9218ZM37.0642 29.8484C37.0558 29.853 37.0483 29.8577 37.0399 29.8623C37.0352 29.8632 37.0343 29.8632 37.0296 29.8651C36.8622 29.9123 36.736 29.8716 37.0642 29.8484Z" fill="url(#paint7_linear_4118_4308)"/>
</g>
<path d="M31.0182 7.00089C32.3583 7.81583 33.4417 8.78242 34.2968 9.94498C35.4559 11.5217 36.0384 13.2615 35.998 15.1619C35.9813 15.936 35.8396 16.6916 35.5995 17.432C35.4736 17.8205 35.1794 18.0501 34.7277 17.9907C34.2702 17.9313 34.0852 17.6369 34.099 17.2245C34.1177 16.672 34.1521 16.1178 34.1265 15.5663C33.9917 12.6505 33.0924 9.95207 31.2534 7.52851C31.1668 7.41412 31.0841 7.29796 31.0054 7.17913C30.9916 7.15873 31.0074 7.12238 31.0172 7L31.0182 7.00089Z" fill="#FAFAFA"/>
<path d="M45.001 7.00094C45.757 7.33026 46.3808 7.74097 46.9762 8.19098C49.0082 9.72813 50.3273 11.6985 50.8366 14.1319C51.054 15.1704 51.053 16.2266 50.8425 17.2745C50.7406 17.7806 50.4987 18.0117 50.06 17.9995C49.5772 17.9864 49.3314 17.746 49.3059 17.2006C49.2374 15.7326 48.9622 14.304 48.4794 12.91C47.7734 10.8695 46.6805 9.04142 45.2056 7.42007C45.139 7.3471 45.0744 7.27132 45.0147 7.19273C44.999 7.17215 45.0088 7.13379 45 7L45.001 7.00094Z" fill="#FAFAFA"/>
<path d="M35.2278 20.6727C35.4077 20.1505 35.1277 19.5888 34.6025 19.4181C34.0772 19.2474 33.5056 19.5324 33.3257 20.0545C33.1458 20.5767 33.4258 21.1384 33.951 21.3091C34.4763 21.4798 35.0479 21.1948 35.2278 20.6727Z" fill="#FAFAFA"/>
<path d="M51.0464 20.0927C51.0732 19.541 50.6476 19.0734 50.0959 19.0481C49.5442 19.0228 49.0753 19.4495 49.0485 20.0012C49.0217 20.5528 49.4472 21.0205 49.9989 21.0458C50.5506 21.071 51.0196 20.6443 51.0464 20.0927Z" fill="#FAFAFA"/>
<path d="M115.694 8.39058C115.6 12.2578 114.173 15.3928 110.583 17.2151C108.433 18.3067 106.247 18.3128 104.182 16.8973C103.528 16.449 103.029 15.8672 102.846 15.0734C102.717 14.5146 102.714 13.8806 103.233 13.5827C104.029 13.1252 103.949 12.462 103.892 11.7604C103.655 8.83576 103.677 5.9188 104.112 3.0126C104.493 0.470239 105.15 -0.0686051 107.751 0.00662166C111.601 0.117159 114.744 2.6518 115.54 6.26576C115.695 6.96736 115.635 7.67362 115.692 8.39058H115.694ZM107.578 13.1529C109.847 12.4083 111.008 8.15718 110.052 6.19514C109.774 5.62557 109.301 5.24332 108.744 4.95623C108.28 4.71827 108.003 4.72133 107.909 5.36459C107.533 7.91616 107.601 10.4754 107.579 13.1529H107.578Z" fill="#FAFAFA"/>
<path d="M133.583 8.74373C133.477 12.297 132.05 15.3607 128.558 17.1694C126.317 18.3309 124.041 18.3385 121.916 16.7822C121.275 16.3125 120.812 15.7111 120.694 14.897C120.626 14.4302 120.646 13.8793 121.038 13.6666C121.884 13.2075 121.787 12.5005 121.746 11.7706C121.58 8.95334 121.549 6.13918 121.944 3.33571C122.019 2.80011 122.155 2.27065 122.288 1.74423C122.551 0.715886 123.257 0.221587 124.289 0.079271C128.323 -0.47775 132.136 1.94929 133.323 5.83313C133.592 6.71151 133.491 7.61128 133.584 8.74522L133.583 8.74373ZM125.425 9.52725C125.425 10.4867 125.416 11.4461 125.431 12.4056C125.436 12.6398 125.28 12.9734 125.585 13.0912C125.845 13.1922 126.051 12.9245 126.249 12.7791C127.865 11.5947 128.794 8.21729 128.012 6.38554C127.736 5.7367 127.236 5.29906 126.613 4.98842C126.141 4.75275 125.886 4.79255 125.772 5.41537C125.523 6.78038 125.617 8.15918 125.426 9.52725H125.425Z" fill="#FAFAFA"/>
<path d="M201.833 15.1266C201.881 14.8639 201.924 14.6198 201.674 14.3494C200.922 13.535 200.989 12.7453 201.96 12.1163C202.611 11.6945 202.956 11.1536 203.244 10.4799C204.252 8.11396 205.497 5.87478 207.205 3.91684C209.761 0.988444 212.56 1.45822 214.064 5.03257C214.431 5.90259 214.711 6.7958 214.906 7.71064C215.018 8.23141 215.227 8.43847 215.796 8.50337C216.786 8.61464 217.645 9.03809 217.945 10.0858C218.26 11.1815 217.945 11.8321 216.768 12.2972C216.153 12.5398 216.075 12.8118 216.29 13.3758C216.565 14.0991 216.759 14.8516 216.772 15.6397C216.787 16.5777 216.565 17.4215 215.615 17.8078C214.656 18.1988 213.731 17.9747 212.953 17.3041C212.011 16.4912 211.645 15.3724 211.472 14.2118C211.357 13.4376 211.044 13.2908 210.296 13.4083C209.066 13.6015 207.812 13.6246 206.581 13.8579C206.068 13.9553 205.777 14.2041 205.537 14.6306C205.205 15.224 204.844 15.8051 204.45 16.3614C204.062 16.9115 203.569 17.3906 202.808 17.1681C202.004 16.9332 201.897 16.2269 201.833 15.5315C201.82 15.4033 201.831 15.2735 201.831 15.122L201.833 15.1266ZM208.361 9.44755C210.586 9.25284 211.045 8.53433 209.95 6.96891C209.277 7.65813 208.684 8.58371 208.361 9.44755Z" fill="#FAFAFA"/>
<path d="M137.231 15.1266C137.28 14.8639 137.322 14.6198 137.072 14.3494C136.32 13.535 136.388 12.7453 137.358 12.1163C138.01 11.6945 138.354 11.1536 138.642 10.4799C139.651 8.11396 140.895 5.87478 142.603 3.91684C145.16 0.988444 147.959 1.45822 149.463 5.03257C149.829 5.90259 150.109 6.7958 150.304 7.71064C150.416 8.23141 150.625 8.43847 151.195 8.50337C152.184 8.61464 153.043 9.03809 153.344 10.0858C153.658 11.1815 153.344 11.8321 152.167 12.2972C151.552 12.5398 151.473 12.8118 151.689 13.3758C151.964 14.0991 152.157 14.8516 152.17 15.6397C152.186 16.5777 151.964 17.4215 151.014 17.8078C150.054 18.1988 149.129 17.9747 148.352 17.3041C147.41 16.4912 147.043 15.3724 146.87 14.2118C146.755 13.4376 146.442 13.2908 145.695 13.4083C144.465 13.6015 143.211 13.6246 141.979 13.8579C141.466 13.9553 141.175 14.2041 140.936 14.6306C140.604 15.224 140.242 15.8051 139.849 16.3614C139.46 16.9115 138.968 17.3906 138.206 17.1681C137.403 16.9332 137.296 16.2269 137.231 15.5315C137.218 15.4033 137.229 15.2735 137.229 15.122L137.231 15.1266ZM143.76 9.44755C145.984 9.25284 146.444 8.53433 145.349 6.96891C144.675 7.65813 144.082 8.58371 143.76 9.44755Z" fill="#FAFAFA"/>
<path d="M73.9566 12.3766C73.198 12.2051 72.7562 11.6794 72.6704 10.8874C72.576 10.0253 72.932 9.35094 73.6514 8.99171C74.8489 8.39409 76.087 8.3745 77.2874 8.91661C78.2248 9.33951 78.7683 10.1804 78.8933 11.3414C79.0982 13.2551 78.1172 15.3615 76.5942 16.2742C75.8967 16.6906 75.218 17.1364 74.4812 17.4776C72.9814 18.1716 71.5224 18.0932 69.9427 17.7111C66.6278 16.9061 64.8127 12.117 66.872 8.60311C68.5578 5.72767 70.9527 3.95604 73.8999 3.13145C74.5262 2.95673 75.2558 2.83916 75.7528 3.57231C76.2861 4.35934 76.2934 5.22474 75.9446 6.09014C75.5798 6.99964 74.9695 7.64953 74.1426 8.02835C73.1864 8.46595 72.2098 8.85454 71.2753 9.34603C70.213 9.90446 69.8497 10.8124 70.136 11.926C70.3525 12.7636 71.0021 13.1652 72.1357 13.095C72.7867 13.0542 73.4639 13.033 73.9566 12.3783V12.3766Z" fill="#FAFAFA"/>
<path d="M181.334 18C179.941 17.9875 178.892 17.762 178.344 16.4691C177.85 15.3076 178.201 14.5359 179.406 14.3606C180.075 14.2636 180.762 14.3027 181.442 14.2824C181.844 14.2714 182.25 14.3027 182.646 14.2479C183.148 14.1774 183.694 13.9771 183.794 13.423C183.893 12.8798 183.333 12.7061 182.953 12.5245C181.542 11.8467 180.03 11.4804 178.563 10.9779C178.209 10.8574 177.855 10.7431 177.506 10.6116C175.224 9.75227 174.556 7.19922 176.351 5.44293C178.871 2.97754 181.916 1.68301 185.419 2.06651C187.012 2.24026 188.016 3.26087 188.214 4.6274C188.401 5.9094 187.711 6.76094 186.493 6.66389C185.664 6.59815 184.843 6.42598 184.02 6.28823C182.569 6.04404 181.259 6.34143 180.123 7.36985C179.687 7.76432 179.756 7.99754 180.304 8.10085C181.399 8.30747 182.482 8.56575 183.543 8.92578C184.313 9.18719 185.05 9.51901 185.721 9.99644C187.628 11.3551 187.922 13.5466 186.41 15.3953C185.02 17.0952 183.228 17.9311 181.333 17.9953L181.334 18Z" fill="#FAFAFA"/>
<path d="M165.372 2.00056C166.226 1.99119 167.056 2.09737 167.822 2.52361C168.638 2.97796 169.197 3.63371 169.332 4.62983C169.517 5.97569 168.829 6.79537 167.535 6.68451C166.731 6.61581 165.932 6.46279 165.135 6.32071C163.815 6.08495 162.588 6.3051 161.494 7.13572C161.252 7.31839 160.856 7.49481 160.914 7.83206C160.977 8.19272 161.413 8.11158 161.696 8.18808C162.72 8.46131 163.758 8.68926 164.772 9.00152C165.702 9.28881 166.576 9.73375 167.319 10.4082C168.555 11.5293 168.824 13.0625 168.071 14.5676C166.896 16.9127 163.46 18.4912 161.002 17.8604C160.195 17.6528 159.691 17.1656 159.37 16.4022C158.913 15.3139 159.239 14.616 160.344 14.3833C160.678 14.3131 161.025 14.3084 161.367 14.299C162.083 14.2819 162.801 14.2866 163.518 14.2725C164.115 14.26 164.747 14.0477 164.881 13.4607C165.02 12.8486 164.34 12.6784 163.904 12.4786C162.272 11.7323 160.526 11.3466 158.849 10.7424C157.812 10.3692 156.67 10.0429 156.49 8.67211C156.295 7.1951 156.677 5.86327 157.877 4.93584C160.107 3.21371 162.565 2.10829 165.375 2.00525L165.372 2.00056Z" fill="#FAFAFA"/>
<path d="M88.9699 15.9865C88.3318 16.0552 87.6008 15.852 86.8829 15.5906C85.5051 15.0888 85.0193 14.3718 85.0236 12.8588C85.0236 12.6064 85.0512 12.3779 84.8395 12.1733C83.6125 10.9903 83.6937 9.58186 84.4131 8.23611C85.7024 5.82242 87.6632 3.9987 90.1736 3.18319C91.8704 2.63204 93.6543 3.39828 95.1147 4.49907C96.5505 5.58045 96.958 7.17562 96.7666 8.92166C96.3431 12.7886 92.8581 15.9805 88.9713 15.988L88.9699 15.9865ZM92.6492 8.94703C92.6695 7.74617 91.7298 6.90077 90.5521 7.11137C89.3324 7.32944 88.5 8.12409 87.8851 9.17859C87.2295 10.3033 87.2571 10.354 88.3912 10.841C88.6421 10.9485 88.8814 11.0844 89.1236 11.2128C90.7189 12.0567 92.6173 10.835 92.6492 8.94558V8.94703Z" fill="#FAFAFA"/>
<path d="M228.001 8.85779C227.891 11.3348 227.706 13.5259 226.962 15.6266C226.877 15.8644 226.793 16.1022 226.69 16.3309C226.126 17.5664 225.401 18.1187 224.54 17.9788C223.69 17.8388 223.084 16.9238 223.036 15.6266C223.02 15.1902 223.041 14.7313 223.164 14.3174C223.932 11.7291 223.663 9.07603 223.705 6.44253C223.719 5.61787 223.812 4.80375 224.116 4.03778C224.573 2.88807 225.476 2.68491 226.435 3.47195C227.36 4.2304 227.61 5.32141 227.798 6.4034C227.954 7.29879 227.952 8.22128 227.999 8.85934L228.001 8.85779Z" fill="#FAFAFA"/>
<path d="M194.809 11.024C195.908 11.0286 196.196 11.3028 196.196 12.3496C196.196 13.3917 195.714 14 194.887 14C193.935 14 193.15 13.3194 193.219 12.4804C193.287 11.6575 193.511 10.8495 194.808 11.024H194.809Z" fill="#FAFAFA"/>
<path d="M88.1614 28C88.8473 28 89.4535 28.1663 89.9802 28.5007C90.2435 28.6558 90.5604 28.8852 90.9293 29.1841C91.2983 29.4846 91.5509 29.7237 91.6887 29.9014C92.1312 30.4345 92.5001 31.1356 92.7956 32.0048C92.9533 32.4829 93.0436 33.0338 93.065 33.6574V33.9918C93.065 34.7591 92.8859 35.7267 92.5277 36.8947C92.3807 37.3842 92.2506 37.7462 92.1403 37.9788C92.0301 38.2114 91.8265 38.5733 91.531 39.0628C91.309 39.4182 90.9799 39.8446 90.542 40.339C90.1042 40.8333 89.7536 41.1758 89.4903 41.3648C88.9851 41.7315 88.2625 41.9431 87.324 41.9997H87.0239C86.3181 41.9997 85.816 41.8268 85.5221 41.4827C85.3108 41.2485 85.1715 40.9205 85.1026 40.4989C85.0337 40.0756 85 39.3697 85 38.3794C85 37.3891 85.0398 36.667 85.1179 36.1096C85.1975 35.5539 85.3782 34.6573 85.6629 33.4231C85.9369 32.2987 86.1008 31.4765 86.1528 30.9531C86.2156 30.4523 86.2692 30.1389 86.3105 30.0096C86.3534 29.882 86.4575 29.7059 86.6274 29.4846C86.8065 29.2504 86.9382 29.0177 87.0224 28.7834C87.1494 28.4054 87.3653 28.1663 87.67 28.0662C87.8384 28.0209 88.0022 28 88.1599 28H88.1614ZM88.6207 30.2697C88.4737 30.2697 88.3941 30.2972 88.3834 30.3537C88.362 30.4652 88.3405 30.6591 88.3206 30.9385C88.2043 32.218 88.0512 33.2971 87.8614 34.176C87.7343 34.743 87.6608 35.1662 87.6393 35.444C87.6179 35.7219 87.5965 36.3003 87.5766 37.1791C87.5659 37.5684 87.5613 38.0579 87.5613 38.6475C87.5613 38.9254 87.5659 39.0756 87.5766 39.0983C87.6087 39.1871 87.6929 39.192 87.8292 39.1144C87.9869 39.0256 88.1874 38.8592 88.4309 38.6136C89.0846 37.99 89.6173 37.1807 90.0276 36.1856C90.4395 35.1905 90.6446 34.2196 90.6446 33.2745C90.6446 32.7398 90.6079 32.3844 90.5344 32.2067C90.4288 31.9401 90.245 31.6057 89.9802 31.2051C89.7168 30.8044 89.5163 30.5654 89.3785 30.4878C89.1565 30.3424 88.9039 30.2713 88.6192 30.2713L88.6207 30.2697Z" fill="#A854C4"/>
<path d="M96.7277 31.1895C96.9582 31.1895 97.1721 31.2699 97.3708 31.4307C97.5695 31.5916 97.6999 31.799 97.7621 32.0531C97.794 32.1528 97.8091 32.28 97.8091 32.436C97.8091 32.6129 97.794 32.8509 97.7621 33.1501C97.7196 33.66 97.6742 34.6009 97.6211 35.9745C97.5589 37.7903 97.439 38.8872 97.2601 39.2636C97.072 39.6512 96.7747 39.8459 96.3667 39.8459H96.2408C95.9799 39.8346 95.7661 39.7413 95.5992 39.5627C95.3596 39.3295 95.2018 38.7988 95.129 37.9672C95.0972 37.6906 95.082 37.4461 95.082 37.2354C95.082 36.8703 95.1442 36.0226 95.2701 34.6941C95.4157 33.1436 95.531 32.2461 95.6144 32.0033C95.6978 31.7491 95.9283 31.5159 96.3045 31.3052C96.441 31.228 96.5806 31.1895 96.7277 31.1895ZM97.0568 28C97.2661 28 97.4542 28.0611 97.6211 28.1833C97.9441 28.4165 98.1064 28.7592 98.1064 29.2127C98.1064 29.4669 98.0442 29.7145 97.9183 29.9525C97.7925 30.1906 97.621 30.3708 97.4011 30.493C97.213 30.5927 97.031 30.6426 96.8521 30.6426C96.4137 30.6426 96.0634 30.3707 95.8025 29.8287C95.7403 29.6952 95.7084 29.5521 95.7084 29.396C95.7084 29.1532 95.7737 28.9135 95.9041 28.6819C96.0345 28.4487 96.209 28.2783 96.4289 28.1673C96.6579 28.0563 96.8672 28.0016 97.0553 28.0016L97.0568 28Z" fill="#A854C4"/>
<path d="M109.236 30.1533C109.63 30.1533 109.918 30.3362 110.1 30.7037C110.17 30.8866 110.206 31.0578 110.206 31.2191C110.206 31.4718 110.145 31.8209 110.024 32.2665C109.691 33.5484 109.127 35.1313 108.333 37.0151C107.539 38.8988 106.936 40.081 106.522 40.5615C106.329 40.8026 106.112 40.9223 105.87 40.9223C105.628 40.9223 105.314 40.7727 104.931 40.4767C104.517 40.1442 104.165 39.6703 103.877 39.0518C103.589 38.4333 103.319 37.5522 103.065 36.4066C102.863 35.547 102.651 34.6841 102.428 33.8128C102.236 33.1145 102.141 32.6856 102.141 32.5243C102.141 32.4329 102.155 32.3182 102.186 32.1802C102.236 31.8825 102.333 31.6514 102.474 31.4851C102.615 31.3189 102.778 31.2357 102.96 31.2357C103.192 31.2357 103.425 31.3854 103.657 31.683C103.787 31.8542 103.915 32.1069 104.035 32.4395C104.085 32.5874 104.313 33.1444 104.718 34.1054C104.89 34.4945 105.127 35.0898 105.431 35.8912C105.582 36.3035 105.698 36.5096 105.781 36.5096C105.851 36.4863 106.004 36.1772 106.236 35.5819C106.438 35.0549 106.887 34.0423 107.584 32.5426C108.029 31.5799 108.32 30.9747 108.456 30.722C108.593 30.4693 108.712 30.3163 108.813 30.2581C108.954 30.19 109.096 30.155 109.237 30.155L109.236 30.1533Z" fill="#A854C4"/>
<path d="M113.866 31.1895C114.095 31.1895 114.31 31.2699 114.507 31.4307C114.705 31.5916 114.836 31.799 114.898 32.0531C114.929 32.1528 114.945 32.28 114.945 32.436C114.945 32.6129 114.929 32.8509 114.898 33.1501C114.855 33.66 114.808 34.6009 114.757 35.9745C114.695 37.7903 114.573 38.8872 114.396 39.2636C114.208 39.6512 113.911 39.8459 113.504 39.8459H113.378C113.117 39.8346 112.904 39.7413 112.735 39.5627C112.496 39.3295 112.338 38.7988 112.266 37.9672C112.234 37.6906 112.219 37.4461 112.219 37.2354C112.219 36.8703 112.281 36.0226 112.407 34.6941C112.552 33.1436 112.667 32.2461 112.751 32.0033C112.834 31.7491 113.064 31.5159 113.44 31.3052C113.575 31.228 113.716 31.1895 113.863 31.1895H113.866ZM114.195 28C114.404 28 114.592 28.0611 114.758 28.1833C115.081 28.4165 115.243 28.7592 115.243 29.2127C115.243 29.4669 115.181 29.7145 115.055 29.9525C114.929 30.1906 114.758 30.3708 114.539 30.493C114.351 30.5927 114.169 30.6426 113.99 30.6426C113.552 30.6426 113.202 30.3707 112.942 29.8287C112.879 29.6952 112.848 29.5521 112.848 29.396C112.848 29.1532 112.913 28.9135 113.043 28.6819C113.173 28.4487 113.348 28.2783 113.567 28.1673C113.798 28.0563 114.005 28.0016 114.193 28.0016L114.195 28Z" fill="#A854C4"/>
<path d="M119.954 31.2314C120.086 31.2314 120.245 31.2873 120.43 31.3991C120.665 31.5488 120.82 31.7003 120.891 31.8554C120.962 32.0104 120.998 32.2936 120.998 32.7029V33.7469C121.019 33.7469 121.187 33.554 121.505 33.1699C121.782 32.8345 122.094 32.5496 122.442 32.3134C122.648 32.1763 122.805 32.097 122.918 32.0718C123.031 32.0465 123.256 32.0338 123.595 32.0338C124.046 32.0338 124.404 32.0933 124.671 32.2106C124.937 32.3278 125.203 32.5496 125.469 32.8724C125.696 33.1447 125.849 33.3719 125.931 33.5522C126.012 33.7326 126.1 34.0264 126.192 34.4376C126.285 34.8469 126.331 35.698 126.331 36.9892C126.331 38.0441 126.307 38.8177 126.262 39.3082C126.216 39.7987 126.127 40.2495 125.993 40.6588C125.706 41.5532 125.291 42.0004 124.748 42.0004C124.163 42.0004 123.79 41.647 123.626 40.9384C123.585 40.7761 123.565 40.4424 123.565 39.9321C123.565 38.8394 123.643 37.7087 123.796 36.542C123.909 35.6223 123.966 35.1193 123.966 35.0327C123.966 34.9588 123.945 34.8343 123.905 34.6612C123.823 34.4124 123.741 34.2573 123.659 34.196C123.628 34.1707 123.582 34.1581 123.521 34.1581C123.378 34.1581 123.203 34.2411 122.999 34.4088C122.795 34.5765 122.645 34.7279 122.553 34.865C122.297 35.2382 121.977 35.9307 121.592 36.9423C121.208 37.9539 120.878 38.9692 120.601 39.988C120.385 40.7833 120.176 41.3044 119.97 41.5532C119.744 41.8273 119.505 41.9625 119.249 41.9625C118.993 41.9625 118.788 41.8453 118.603 41.6091C118.46 41.4234 118.368 41.2142 118.327 40.9852C118.285 40.7562 118.266 40.318 118.266 39.6725C118.266 39.0269 118.283 38.5364 118.319 38.1631C118.355 37.7899 118.475 36.7295 118.681 34.9786C118.875 33.352 118.972 32.4756 118.972 32.353C118.972 31.9058 119.142 31.5831 119.479 31.3847C119.674 31.2856 119.833 31.2351 119.955 31.2351L119.954 31.2314Z" fill="#A854C4"/>
<path d="M133.123 30.1533C133.71 30.1533 134.265 30.4036 134.787 30.9057C135.341 31.4284 135.619 32.0778 135.619 32.8523C135.619 33.1912 135.571 33.5397 135.475 33.8992C135.326 34.433 135.152 34.8401 134.954 35.1189C134.757 35.3976 134.386 35.754 133.842 36.1912C133.18 36.7249 132.641 37.0306 132.226 37.1082C132.183 37.1193 132.115 37.1241 132.018 37.1241C131.549 37.1241 131.165 37.0148 130.866 36.7962C130.685 36.6869 130.578 36.6331 130.545 36.6331C130.493 36.6331 130.465 36.6933 130.465 36.8137C130.465 36.9119 130.469 36.9942 130.48 37.0591C130.524 37.4852 130.668 37.8796 130.912 38.2454C131.157 38.6113 131.441 38.8426 131.76 38.9408C131.856 38.974 131.93 38.9899 131.984 38.9899C132.048 38.9899 132.161 38.9408 132.321 38.8426C132.843 38.4941 133.397 37.9255 133.984 37.1415C134.273 36.7487 134.523 36.4715 134.736 36.3068C134.95 36.1436 135.183 36.0391 135.441 35.9963C135.484 35.9853 135.541 35.9805 135.617 35.9805C135.842 35.9805 136.054 36.123 136.257 36.4065C136.364 36.5586 136.417 36.7123 136.417 36.8643C136.417 36.9736 136.41 37.0654 136.401 37.143C136.358 37.7212 136.113 38.3231 135.665 38.9503C135.218 39.5775 134.694 40.0543 134.097 40.3821C133.713 40.5896 133.41 40.7227 133.185 40.7828C132.96 40.843 132.62 40.8843 132.161 40.9064C132.118 40.9064 132.054 40.9096 131.969 40.9143C131.884 40.9191 131.825 40.9223 131.792 40.9223C131.28 40.9223 130.853 40.8431 130.513 40.6847C130.172 40.5263 129.808 40.2459 129.425 39.842C129.137 39.5474 128.929 39.2481 128.801 38.9424C128.672 38.6367 128.565 38.1789 128.48 37.5676C128.395 36.9023 128.352 36.3574 128.352 35.9314C128.352 35.0254 128.544 34.1749 128.928 33.3797C129.194 32.8349 129.557 32.2995 130.015 31.7768C130.474 31.2541 130.902 30.8883 131.295 30.6808C131.764 30.4305 132.249 30.2658 132.751 30.1897C132.922 30.1676 133.044 30.1565 133.12 30.1565L133.123 30.1533ZM133.012 32.2473C132.959 32.2473 132.776 32.3344 132.468 32.5086C132.147 32.6828 131.854 32.8982 131.588 33.1548C131.321 33.4114 131.188 33.5983 131.188 33.7187C131.188 33.8169 131.241 33.9753 131.348 34.1939L131.524 34.5043L132.005 34.4885C132.527 34.4774 132.936 34.3744 133.228 34.178C133.521 33.9816 133.668 33.7139 133.668 33.3766C133.668 33.1913 133.613 32.9838 133.501 32.7557C133.389 32.526 133.275 32.3787 133.157 32.3138C133.072 32.2694 133.024 32.2488 133.013 32.2488L133.012 32.2473Z" fill="#A854C4"/>
<path d="M146.63 28C147.316 28 147.922 28.1663 148.449 28.5007C148.712 28.6558 149.029 28.8852 149.398 29.1841C149.767 29.4846 150.02 29.7237 150.157 29.9014C150.6 30.4345 150.969 31.1356 151.264 32.0048C151.422 32.4829 151.512 33.0338 151.534 33.6574V33.9918C151.534 34.7591 151.355 35.7267 150.996 36.8947C150.849 37.3842 150.719 37.7462 150.609 37.9788C150.499 38.2114 150.295 38.5733 150 39.0628C149.778 39.4182 149.449 39.8446 149.011 40.339C148.573 40.8333 148.222 41.1758 147.959 41.3648C147.454 41.7315 146.731 41.9431 145.793 41.9997H145.493C144.787 41.9997 144.285 41.8268 143.991 41.4827C143.78 41.2485 143.64 40.9205 143.571 40.4989C143.502 40.0756 143.469 39.3697 143.469 38.3794C143.469 37.3891 143.509 36.667 143.587 36.1096C143.666 35.5539 143.847 34.6573 144.132 33.4231C144.406 32.2987 144.57 31.4765 144.622 30.9531C144.684 30.4523 144.738 30.1389 144.779 30.0096C144.822 29.882 144.926 29.7059 145.096 29.4846C145.275 29.2504 145.407 29.0177 145.491 28.7834C145.618 28.4054 145.834 28.1663 146.139 28.0662C146.307 28.0209 146.471 28 146.629 28H146.63ZM147.089 30.2697C146.942 30.2697 146.863 30.2972 146.852 30.3537C146.831 30.4652 146.809 30.6591 146.789 30.9385C146.673 32.218 146.52 33.2971 146.33 34.176C146.203 34.743 146.13 35.1662 146.108 35.444C146.087 35.7219 146.065 36.3003 146.045 37.1791C146.035 37.5684 146.03 38.0579 146.03 38.6475C146.03 38.9254 146.035 39.0756 146.045 39.0983C146.077 39.1871 146.162 39.192 146.298 39.1144C146.456 39.0256 146.656 38.8592 146.9 38.6136C147.553 37.99 148.086 37.1807 148.496 36.1856C148.908 35.1905 149.113 34.2196 149.113 33.2745C149.113 32.7398 149.077 32.3844 149.003 32.2067C148.898 31.9401 148.714 31.6057 148.449 31.2051C148.186 30.8044 147.985 30.5654 147.847 30.4878C147.625 30.3424 147.373 30.2713 147.088 30.2713L147.089 30.2697Z" fill="#A854C4"/>
<path d="M160.342 30.1533C160.929 30.1533 161.484 30.4036 162.006 30.9057C162.56 31.4284 162.838 32.0778 162.838 32.8523C162.838 33.1912 162.79 33.5397 162.693 33.8992C162.545 34.433 162.371 34.8401 162.173 35.1189C161.976 35.3976 161.604 35.754 161.061 36.1912C160.399 36.7249 159.86 37.0306 159.445 37.1082C159.401 37.1193 159.333 37.1241 159.237 37.1241C158.768 37.1241 158.384 37.0148 158.085 36.7962C157.903 36.6869 157.796 36.6331 157.764 36.6331C157.711 36.6331 157.683 36.6933 157.683 36.8137C157.683 36.9119 157.69 36.9942 157.699 37.0591C157.742 37.4852 157.885 37.8796 158.131 38.2454C158.377 38.6113 158.659 38.8426 158.979 38.9408C159.075 38.974 159.149 38.9899 159.203 38.9899C159.267 38.9899 159.38 38.9408 159.539 38.8426C160.061 38.4941 160.618 37.9255 161.203 37.1415C161.491 36.7487 161.742 36.4715 161.955 36.3068C162.168 36.1436 162.402 36.0391 162.659 35.9963C162.703 35.9853 162.76 35.9805 162.836 35.9805C163.061 35.9805 163.273 36.123 163.476 36.4065C163.583 36.5586 163.635 36.7123 163.635 36.8643C163.635 36.9736 163.631 37.0654 163.62 37.143C163.577 37.7212 163.332 38.3231 162.884 38.9503C162.436 39.5775 161.913 40.0543 161.316 40.3821C160.932 40.5896 160.628 40.7227 160.404 40.7828C160.179 40.843 159.838 40.8843 159.38 40.9064C159.336 40.9064 159.273 40.9096 159.188 40.9143C159.102 40.9191 159.044 40.9223 159.011 40.9223C158.5 40.9223 158.072 40.8431 157.731 40.6847C157.391 40.5263 157.027 40.2459 156.644 39.842C156.356 39.5474 156.148 39.2481 156.02 38.9424C155.891 38.6367 155.786 38.1789 155.699 37.5676C155.614 36.9023 155.57 36.3574 155.57 35.9314C155.57 35.0254 155.762 34.1749 156.147 33.3797C156.413 32.8349 156.776 32.2995 157.234 31.7768C157.693 31.2541 158.12 30.8883 158.514 30.6808C158.983 30.4305 159.468 30.2658 159.97 30.1897C160.14 30.1676 160.263 30.1565 160.339 30.1565L160.342 30.1533ZM160.23 32.2473C160.178 32.2473 159.995 32.3344 159.686 32.5086C159.366 32.6828 159.073 32.8982 158.807 33.1548C158.54 33.4114 158.407 33.5983 158.407 33.7187C158.407 33.8169 158.46 33.9753 158.566 34.1939L158.743 34.5043L159.223 34.4885C159.745 34.4774 160.154 34.3744 160.447 34.178C160.74 33.9816 160.887 33.7139 160.887 33.3766C160.887 33.1913 160.831 32.9838 160.72 32.7557C160.608 32.526 160.494 32.3787 160.376 32.3138C160.291 32.2694 160.243 32.2488 160.232 32.2488L160.23 32.2473Z" fill="#A854C4"/>
<path d="M171.348 30.1566C171.952 30.1566 172.522 30.3263 173.059 30.6672C173.496 30.9389 173.713 31.3243 173.713 31.8233C173.713 32.2663 173.54 32.6286 173.194 32.9118C172.938 33.1276 172.629 33.2346 172.272 33.2346C171.881 33.2346 171.478 33.1045 171.064 32.8427C170.796 32.6731 170.588 32.5874 170.444 32.5874C170.288 32.5874 170.097 32.7011 169.874 32.9283C169.652 33.1556 169.538 33.2972 169.538 33.3532C169.538 33.592 169.817 33.9378 170.377 34.3907C170.668 34.6295 170.978 34.9572 171.308 35.3772C171.637 35.7971 171.864 36.148 171.986 36.4312C172.176 36.8512 172.272 37.3831 172.272 38.0304C172.272 38.1885 172.267 38.3021 172.256 38.3712C172.166 39.4252 171.697 40.1351 170.847 40.4974C170.209 40.7806 169.449 40.9223 168.566 40.9223C167.95 40.9223 167.486 40.8432 167.174 40.6835C166.918 40.5583 166.663 40.3739 166.411 40.1301C166.16 39.8864 165.978 39.6574 165.866 39.4417C165.72 39.1584 165.648 38.8291 165.648 38.4553C165.648 37.8657 165.804 37.4408 166.118 37.1789C166.319 37.0093 166.536 36.9236 166.772 36.9236C167.119 36.9236 167.499 37.0933 167.911 37.4342C168.314 37.7635 168.683 37.9282 169.019 37.9282C169.142 37.9282 169.236 37.9216 169.304 37.9117C169.808 37.8656 170.059 37.6516 170.059 37.2646C170.059 37.1164 170.004 36.9846 169.892 36.8643C169.78 36.7441 169.535 36.5498 169.153 36.2781C168.483 35.7906 168.053 35.3311 167.863 34.8996C167.684 34.4796 167.595 33.9592 167.595 33.3351C167.595 32.7685 167.673 32.3091 167.83 31.9567C167.997 31.5944 168.327 31.2502 168.819 30.9274C169.311 30.6046 169.848 30.3806 170.429 30.2554C170.754 30.1879 171.061 30.1533 171.351 30.1533L171.348 30.1566Z" fill="#A854C4"/>
<path d="M177.38 31.1895C177.611 31.1895 177.824 31.2699 178.023 31.4307C178.222 31.5916 178.352 31.799 178.414 32.0531C178.446 32.1528 178.461 32.28 178.461 32.436C178.461 32.6129 178.446 32.8509 178.414 33.1501C178.372 33.66 178.326 34.6009 178.273 35.9745C178.211 37.7903 178.091 38.8872 177.912 39.2636C177.724 39.6512 177.427 39.8459 177.019 39.8459H176.893C176.632 39.8346 176.418 39.7413 176.252 39.5627C176.012 39.3295 175.854 38.7988 175.781 37.9672C175.75 37.6906 175.734 37.4461 175.734 37.2354C175.734 36.8703 175.797 36.0226 175.922 34.6941C176.068 33.1436 176.183 32.2461 176.267 32.0033C176.35 31.7491 176.581 31.5159 176.957 31.3052C177.093 31.228 177.233 31.1895 177.38 31.1895ZM177.709 28C177.918 28 178.107 28.0611 178.273 28.1833C178.596 28.4165 178.759 28.7592 178.759 29.2127C178.759 29.4669 178.697 29.7145 178.571 29.9525C178.445 30.1906 178.273 30.3708 178.053 30.493C177.865 30.5927 177.683 30.6426 177.504 30.6426C177.066 30.6426 176.716 30.3707 176.455 29.8287C176.393 29.6952 176.361 29.5521 176.361 29.396C176.361 29.1532 176.426 28.9135 176.556 28.6819C176.687 28.4487 176.861 28.2783 177.081 28.1673C177.31 28.0563 177.52 28.0016 177.708 28.0016L177.709 28Z" fill="#A854C4"/>
<path d="M182.718 30.1533C183.044 30.1533 183.305 30.2561 183.499 30.4616C183.693 30.6671 183.789 30.9441 183.789 31.2926C183.789 31.4876 183.804 31.5844 183.835 31.5844C183.845 31.5844 184.044 31.4876 184.432 31.2926C185.086 30.9649 185.602 30.8011 185.978 30.8011C186.354 30.8011 186.707 30.9501 187.035 31.2479C187.208 31.4013 187.384 31.6634 187.562 32.0327C187.74 32.4021 187.83 32.6836 187.83 32.8786C187.83 33.1765 187.706 33.4296 187.455 33.6396C187.205 33.8496 186.901 33.9553 186.544 33.9553C186.126 33.9553 185.794 33.7707 185.55 33.4013C185.427 33.2167 185.289 33.1243 185.136 33.1243C184.902 33.1243 184.638 33.2375 184.348 33.4624C184.057 33.6888 183.845 33.9554 183.712 34.2621C183.641 34.4051 183.554 34.7744 183.451 35.3701C183.37 35.8213 183.247 36.3575 183.084 36.977C182.921 37.598 182.798 37.9852 182.716 38.1386C182.645 38.2815 182.535 38.4125 182.387 38.5302C182.239 38.6478 182.094 38.7223 181.952 38.7536C181.941 38.7536 181.923 38.7566 181.898 38.7611C181.873 38.7655 181.855 38.7685 181.845 38.7685C181.671 38.7685 181.492 38.7119 181.31 38.5987C181.126 38.4855 180.993 38.347 180.911 38.1832C180.819 37.9985 180.773 37.5786 180.773 36.9219C180.773 36.3575 180.851 35.6917 181.003 34.9218C181.208 33.9583 181.385 32.7371 181.54 31.2613C181.581 30.9128 181.664 30.6582 181.792 30.5003C181.919 30.341 182.126 30.2367 182.411 30.1846C182.553 30.1637 182.655 30.1533 182.718 30.1533Z" fill="#A854C4"/>
<path d="M195.623 30.1533C196.21 30.1533 196.765 30.4036 197.287 30.9057C197.841 31.4284 198.119 32.0778 198.119 32.8523C198.119 33.1912 198.071 33.5397 197.975 33.8992C197.826 34.433 197.652 34.8401 197.454 35.1189C197.257 35.3976 196.886 35.754 196.342 36.1912C195.68 36.7249 195.141 37.0306 194.726 37.1082C194.683 37.1193 194.615 37.1241 194.518 37.1241C194.049 37.1241 193.665 37.0148 193.366 36.7962C193.185 36.6869 193.078 36.6331 193.045 36.6331C192.993 36.6331 192.965 36.6933 192.965 36.8137C192.965 36.9119 192.971 36.9942 192.98 37.0591C193.024 37.4852 193.166 37.8796 193.412 38.2454C193.659 38.6113 193.941 38.8426 194.26 38.9408C194.356 38.974 194.43 38.9899 194.484 38.9899C194.548 38.9899 194.661 38.9408 194.821 38.8426C195.343 38.4941 195.899 37.9255 196.484 37.1415C196.773 36.7487 197.024 36.4715 197.236 36.3068C197.45 36.1436 197.683 36.0391 197.941 35.9963C197.984 35.9853 198.041 35.9805 198.117 35.9805C198.342 35.9805 198.554 36.123 198.757 36.4065C198.864 36.5586 198.917 36.7123 198.917 36.8643C198.917 36.9736 198.912 37.0654 198.901 37.143C198.858 37.7212 198.613 38.3231 198.165 38.9503C197.718 39.5775 197.194 40.0543 196.597 40.3821C196.213 40.5896 195.91 40.7227 195.685 40.7828C195.46 40.843 195.12 40.8843 194.661 40.9064C194.618 40.9064 194.554 40.9096 194.469 40.9143C194.384 40.9191 194.325 40.9223 194.292 40.9223C193.781 40.9223 193.353 40.8431 193.013 40.6847C192.672 40.5263 192.308 40.2459 191.925 39.842C191.637 39.5474 191.429 39.2481 191.301 38.9424C191.172 38.6367 191.067 38.1789 190.98 37.5676C190.895 36.9023 190.852 36.3574 190.852 35.9314C190.852 35.0254 191.044 34.1749 191.428 33.3797C191.694 32.8349 192.057 32.2995 192.515 31.7768C192.974 31.2541 193.402 30.8883 193.795 30.6808C194.264 30.4305 194.749 30.2658 195.251 30.1897C195.422 30.1676 195.544 30.1565 195.62 30.1565L195.623 30.1533ZM195.511 32.2473C195.459 32.2473 195.276 32.3344 194.968 32.5086C194.647 32.6828 194.354 32.8982 194.088 33.1548C193.821 33.4114 193.688 33.5983 193.688 33.7187C193.688 33.8169 193.741 33.9753 193.848 34.1939L194.024 34.5043L194.505 34.4885C195.027 34.4774 195.436 34.3744 195.728 34.178C196.021 33.9816 196.168 33.7139 196.168 33.3766C196.168 33.1913 196.113 32.9838 196.001 32.7557C195.89 32.526 195.775 32.3787 195.657 32.3138C195.572 32.2694 195.524 32.2488 195.513 32.2488L195.511 32.2473Z" fill="#A854C4"/>
<path d="M206.638 30.1566C207.241 30.1566 207.811 30.3263 208.348 30.6672C208.785 30.9389 209.003 31.3243 209.003 31.8233C209.003 32.2663 208.829 32.6286 208.483 32.9118C208.227 33.1276 207.918 33.2346 207.561 33.2346C207.17 33.2346 206.768 33.1045 206.354 32.8427C206.086 32.6731 205.878 32.5874 205.734 32.5874C205.578 32.5874 205.388 32.7011 205.164 32.9283C204.94 33.1556 204.828 33.2972 204.828 33.3532C204.828 33.592 205.107 33.9378 205.666 34.3907C205.956 34.6295 206.266 34.9572 206.596 35.3772C206.925 35.7971 207.152 36.148 207.274 36.4312C207.464 36.8512 207.56 37.3831 207.56 38.0304C207.56 38.1885 207.553 38.3021 207.543 38.3712C207.454 39.4252 206.985 40.1351 206.135 40.4974C205.497 40.7806 204.737 40.9223 203.854 40.9223C203.239 40.9223 202.775 40.8432 202.463 40.6835C202.207 40.5583 201.952 40.3739 201.7 40.1301C201.449 39.8864 201.267 39.6574 201.155 39.4417C201.009 39.1584 200.938 38.8291 200.938 38.4553C200.938 37.8657 201.093 37.4408 201.407 37.1789C201.608 37.0093 201.825 36.9236 202.061 36.9236C202.406 36.9236 202.788 37.0933 203.2 37.4342C203.603 37.7635 203.971 37.9282 204.307 37.9282C204.43 37.9282 204.524 37.9216 204.593 37.9117C205.096 37.8656 205.347 37.6516 205.347 37.2646C205.347 37.1164 205.292 36.9846 205.18 36.8643C205.068 36.7441 204.823 36.5498 204.442 36.2781C203.771 35.7906 203.341 35.3311 203.151 34.8996C202.973 34.4796 202.884 33.9592 202.884 33.3351C202.884 32.7685 202.961 32.3091 203.119 31.9567C203.286 31.5944 203.616 31.2502 204.107 30.9274C204.599 30.6046 205.136 30.3806 205.717 30.2554C206.042 30.1879 206.349 30.1533 206.639 30.1533L206.638 30.1566Z" fill="#A854C4"/>
</g>
<defs>
<linearGradient id="paint0_linear_4118_4308" x1="38.0775" y1="30.156" x2="3.23558" y2="9.533" gradientUnits="userSpaceOnUse">
<stop offset="0.08" stop-color="#A854C4"/>
<stop offset="1" stop-color="#E02C7D"/>
</linearGradient>
<linearGradient id="paint1_linear_4118_4308" x1="13.42" y1="28.7848" x2="30.9535" y2="3.25063" gradientUnits="userSpaceOnUse">
<stop stop-color="#E02C7D"/>
<stop offset="0.92" stop-color="#ED77B2"/>
</linearGradient>
<linearGradient id="paint2_linear_4118_4308" x1="15.5004" y1="51.9986" x2="15.5004" y2="-16.3178" gradientUnits="userSpaceOnUse">
<stop offset="0.15" stop-color="#ED77B2"/>
<stop offset="0.66" stop-color="#E02C7D"/>
</linearGradient>
<linearGradient id="paint3_linear_4118_4308" x1="5.4959" y1="16.1315" x2="21.4159" y2="0.735227" gradientUnits="userSpaceOnUse">
<stop stop-color="white"/>
<stop offset="0.92" stop-color="#ED77B2"/>
</linearGradient>
<linearGradient id="paint4_linear_4118_4308" x1="26.0011" y1="-2.0012" x2="42.9999" y2="-2.0012" gradientUnits="userSpaceOnUse">
<stop offset="0.08" stop-color="#ED77B2"/>
<stop offset="1" stop-color="white"/>
</linearGradient>
<linearGradient id="paint5_linear_4118_4308" x1="28.2335" y1="39.5985" x2="48.441" y2="4.90761" gradientUnits="userSpaceOnUse">
<stop offset="0.08" stop-color="#A854C4"/>
<stop offset="1" stop-color="#E02C7D"/>
</linearGradient>
<linearGradient id="paint6_linear_4118_4308" x1="33.0054" y1="27.2759" x2="50.9051" y2="3.07943" gradientUnits="userSpaceOnUse">
<stop stop-color="#E02C7D"/>
<stop offset="0.92" stop-color="#ED77B2"/>
</linearGradient>
<linearGradient id="paint7_linear_4118_4308" x1="28.628" y1="41.4725" x2="41.0368" y2="28.9538" gradientUnits="userSpaceOnUse">
<stop offset="0.08" stop-color="#ED77B2"/>
<stop offset="1" stop-color="#E02C7D"/>
</linearGradient>
<clipPath id="clip0_4118_4308">
<rect width="228" height="44" fill="white"/>
</clipPath>
</defs>
</svg>
