  <svg xmlns="http://www.w3.org/2000/svg" xmlns:xlink="http://www.w3.org/1999/xlink" style="display: none;">
    <defs>
      <symbol id="icon-premium" viewBox="0 0 24 24">
        <path d="M24 5.61959L18.0466 7.74112L18.401 8.44989C18.9054 9.46009 18.4193 10.7076 17.1132 11.0707C17.0967 11.0762 15.2877 11.5618 14.7383 9.91619L14.2088 8.32555L15.7156 6.81803L11.9973 1.24121L8.27889 6.81803L9.78575 8.32555L9.25622 9.91619C8.91349 10.9429 8.17795 11.2891 6.87438 11.0412C6.73204 10.9718 5.98866 10.9396 5.5681 10.024C5.33597 9.51991 5.34558 8.94646 5.59351 8.44989L5.94722 7.74177L0 5.61888L2.6534 15.8715L8.89291 15.8715L11.9973 12.7671L15.1016 15.8715L21.3425 15.8715L24 5.61959Z" fill-rule="nonzero"/>
        <path d="M0 0L2.57157 0L2.57157 2.57157L0 2.57157L0 0Z" transform="matrix(0.707107,-0.707107,0.707107,0.707107,10.1758,16.5742)" fill-rule="nonzero"/>
        <path d="M8.89383 17.2783L2.85547 17.2783L2.85547 20.0915L11.707 20.0915L8.89383 17.2783Z" fill-rule="nonzero"/>
        <path d="M21.1406 17.2783L15.1022 17.2783L12.2891 20.0915L21.1406 20.0915L21.1406 17.2783Z" fill-rule="nonzero"/>
      </symbol>


      <symbol id="icon-models" viewBox="0 0 24 24">
        <path d="M21.1304 5.73952L18.6261 5.73952L17.2435 3.65256C16.7217 2.86996 15.8087 2.40039 14.8696 2.40039L9.13043 2.40039C8.1913 2.40039 7.27826 2.86996 6.75652 3.65256L5.37391 5.73952L2.86957 5.73952C1.27826 5.73952 0 7.01778 0 8.60909L0 18.7308C0 20.3221 1.27826 21.6004 2.86957 21.6004L21.1304 21.6004C22.7217 21.6004 24 20.3221 24 18.7308L24 8.60909C24 7.01778 22.7217 5.73952 21.1304 5.73952ZM12 19.2526C8.42609 19.2526 5.53043 16.3569 5.53043 12.783C5.53043 9.20909 8.42609 6.33952 12 6.33952C15.5739 6.33952 18.4696 9.23517 18.4696 12.8091C18.4696 16.3569 15.5739 19.2526 12 19.2526ZM20.7652 9.783C20.7391 9.783 20.713 9.783 20.6609 9.783L19.6174 9.783C19.1478 9.75691 18.7826 9.36561 18.8087 8.89604C18.8348 8.45256 19.1739 8.11343 19.6174 8.08735L20.6609 8.08735C21.1304 8.06126 21.5217 8.42648 21.5478 8.89604C21.5739 9.36561 21.2348 9.75691 20.7652 9.783Z"/>
        <path d="M11.9984 9.20898C10.0158 9.20898 8.39844 10.8264 8.39844 12.809C8.39844 14.7916 10.0158 16.3829 11.9984 16.3829C13.981 16.3829 15.5984 14.7655 15.5984 12.7829C15.5984 10.8003 13.981 9.20898 11.9984 9.20898Z"/>
      </symbol>


      <symbol id="icon-generator" viewBox="0 0 24 24">
        <path d="M8.49118 5.93195L5.54573 15.1218C5.52825 15.1728 5.52314 15.2273 5.53081 15.2808C5.53849 15.3342 5.55873 15.385 5.58988 15.4291C5.62102 15.4732 5.66218 15.5093 5.70998 15.5344C5.75778 15.5594 5.81084 15.5728 5.86482 15.5734L6.68954 15.5734C6.76315 15.5732 6.83472 15.5492 6.89356 15.5049C6.95239 15.4607 6.99534 15.3986 7.016 15.328L7.47745 13.8552L11.5103 13.8552L11.4538 13.7644L11.9595 15.328C11.9801 15.3986 12.0231 15.4607 12.0819 15.5049C12.1407 15.5492 12.2123 15.5732 12.2859 15.5734L13.1106 15.5734C13.1647 15.5737 13.218 15.5612 13.2662 15.5369C13.3145 15.5126 13.3562 15.4771 13.3881 15.4335C13.42 15.3899 13.441 15.3394 13.4496 15.286C13.4581 15.2327 13.4538 15.1781 13.4371 15.1267L10.4916 5.93686C10.4706 5.86641 10.4276 5.80455 10.3688 5.76037C10.3101 5.71619 10.2387 5.69202 10.1652 5.69141L8.81027 5.69141C8.73855 5.69286 8.66911 5.71689 8.61182 5.76008C8.55454 5.80326 8.51233 5.8634 8.49118 5.93195ZM7.96836 12.3825L9.48772 7.65259L11.0194 12.3825L7.96836 12.3825Z"/>
        <path d="M16.8127 5.69336L16.0272 5.69336C15.8374 5.69336 15.6836 5.84721 15.6836 6.037L15.6836 15.2268C15.6836 15.4166 15.8374 15.5704 16.0272 15.5704L16.8127 15.5704C17.0025 15.5704 17.1563 15.4166 17.1563 15.2268L17.1563 6.037C17.1563 5.84721 17.0025 5.69336 16.8127 5.69336Z" fill-rule="evenodd"/>
        <path d="M12.7994 19.2539L5.65667 19.2539C5.12547 19.2539 4.61602 19.0428 4.2404 18.6672C3.86478 18.2916 3.65376 17.7822 3.65376 17.2509L3.65376 4.56586C3.65376 4.03465 3.86478 3.52521 4.2404 3.14959C4.61602 2.77397 5.12547 2.56295 5.65667 2.56295L18.3418 2.56295C18.873 2.56295 19.3824 2.77397 19.758 3.14959C20.1337 3.52521 20.3447 4.03465 20.3447 4.56586L20.3447 10.9084C20.3492 11.0423 20.4064 11.169 20.5038 11.261C20.6013 11.3529 20.7311 11.4026 20.865 11.3993C21.283 11.398 21.6956 11.4938 22.0702 11.6791C22.148 11.719 22.2348 11.7381 22.3221 11.7344C22.4094 11.7308 22.4943 11.7046 22.5685 11.6583C22.6427 11.6121 22.7036 11.5474 22.7453 11.4706C22.7871 11.3938 22.8082 11.3075 22.8066 11.2201L22.8066 4.56586C22.8066 3.97988 22.691 3.39965 22.4666 2.85836C22.2421 2.31708 21.9131 1.82537 21.4984 1.41136C21.0837 0.997347 20.5915 0.669167 20.0498 0.445592C19.5082 0.222018 18.9277 0.107436 18.3418 0.108405L5.65667 0.108405C4.47448 0.108405 3.34071 0.578028 2.50478 1.41396C1.66884 2.2499 1.19922 3.38367 1.19922 4.56586L1.19922 17.2509C1.19922 18.4331 1.66884 19.5669 2.50478 20.4028C3.34071 21.2388 4.47448 21.7084 5.65667 21.7084L13.8303 21.7084C13.9307 21.7085 14.029 21.6789 14.1126 21.6232C14.1962 21.5676 14.2614 21.4884 14.3 21.3956C14.3386 21.3029 14.3489 21.2008 14.3295 21.1023C14.3101 21.0037 14.262 20.9131 14.1911 20.8419C13.8092 20.4915 13.4998 20.0696 13.2805 19.6C13.2453 19.5 13.1804 19.4132 13.0943 19.3513C13.0083 19.2894 12.9054 19.2554 12.7994 19.2539Z"/>
        <path d="M22.0106 19.4694L23.8709 18.7354C23.9092 18.7203 23.942 18.694 23.9652 18.6599C23.9883 18.6258 24.0007 18.5855 24.0007 18.5443C24.0007 18.503 23.9883 18.4627 23.9652 18.4286C23.942 18.3945 23.9092 18.3682 23.8709 18.3531L22.0106 17.6191C21.6813 17.4887 21.3822 17.2921 21.1318 17.0414C20.8814 16.7907 20.6851 16.4912 20.5549 16.1615L19.8219 14.3112C19.8067 14.2729 19.7803 14.2401 19.7463 14.217C19.7122 14.217 19.672 14.1816 19.6309 14.1816C19.5898 14.1816 19.5496 14.1939 19.5156 14.217C19.4815 14.2401 19.4552 14.2729 19.44 14.3112L18.707 16.1615C18.5771 16.4914 18.3808 16.791 18.1304 17.0418C17.88 17.2925 17.5807 17.489 17.2512 17.6191L15.4033 18.3531C15.365 18.3682 15.3321 18.3945 15.309 18.4286C15.2858 18.4627 15.2734 18.503 15.2734 18.5443C15.2734 18.5855 15.2858 18.6258 15.309 18.6599C15.3321 18.694 15.365 18.7203 15.4033 18.7354L17.2512 19.4694C17.5807 19.5995 17.88 19.796 18.1304 20.0467C18.3808 20.2975 18.5771 20.5971 18.707 20.927L19.44 22.7773C19.4549 22.816 19.481 22.8492 19.5151 22.8727C19.5492 22.8962 19.5896 22.9088 19.6309 22.9089C19.6723 22.9088 19.7126 22.8962 19.7467 22.8727C19.7808 22.8492 19.807 22.816 19.8219 22.7773L20.5549 20.927C20.6851 20.5973 20.8814 20.2978 21.1318 20.0471C21.3822 19.7964 21.6813 19.5998 22.0106 19.4694Z"/>
      </symbol>

      <symbol id="icon-chat" viewBox="0 0 24 24">
        <path d="M14.8594 1.4541L2.10938 1.4541C0.942141 1.4541 0 2.39624 0 3.56348L0 12.001C0 13.1681 0.942141 14.1104 2.10938 14.1104L2.8125 14.1104L2.8125 16.2197C2.8125 16.7277 3.33848 17.0956 3.85312 16.8385C3.86719 16.8244 3.89536 16.8244 3.90942 16.8103C7.77736 14.2165 6.9105 14.7948 7.77661 14.2228C7.88906 14.1525 8.01562 14.1104 8.15625 14.1104L14.8594 14.1104C16.0266 14.1104 16.9688 13.1681 16.9688 12.001L16.9688 3.56348C16.9688 2.39624 16.0266 1.4541 14.8594 1.4541ZM9.23438 9.8916L3.51562 9.8916C2.58877 9.8916 2.58497 8.48535 3.51562 8.48535L9.23438 8.48535C10.1612 8.48535 10.165 9.8916 9.23438 9.8916ZM13.4531 7.0791L3.51562 7.0791C2.58877 7.0791 2.58497 5.67285 3.51562 5.67285L13.4531 5.67285C14.38 5.67285 14.3838 7.0791 13.4531 7.0791Z"/>
        <path d="M21.8906 7.0791L18.375 7.0791L18.375 12.001C18.375 13.9416 16.8 15.5166 14.8594 15.5166L8.36719 15.5166L7.03125 16.4025L7.03125 17.626C7.03125 18.7931 7.97339 19.7354 9.14062 19.7354L16.0546 19.7354L20.0906 22.4353C20.6415 22.7412 21.1875 22.3692 21.1875 21.8447L21.1875 19.7354L21.8906 19.7354C23.0579 19.7354 24 18.7931 24 17.626L24 9.18848C24 8.02129 23.0579 7.0791 21.8906 7.0791Z"/>
      </symbol>


      <symbol id="icon-favorites" viewBox="0 0 24 24">
        <path d="M12 23C18.0751 23 23 18.0751 23 12C23 5.92487 18.0751 1 12 1C5.92487 1 1 5.92487 1 12C1 18.0751 5.92487 23 12 23Z" fill-rule="evenodd" />
        <path d="M12.001 20L9.07746 16.767L6.17692 13.534C4.60769 11.7473 4.60769 8.95074 6.17692 7.16397C6.9453 6.36829 7.98604 5.95249 9.05012 6.01605C10.1142 6.07961 11.1059 6.61681 11.788 7.49912L12.001 7.72435L12.212 7.48942C12.8941 6.60711 13.8858 6.06991 14.9499 6.00635C16.014 5.94279 17.0547 6.35859 17.8231 7.15427C19.3923 8.94104 19.3923 11.7376 17.8231 13.5243L14.9225 16.7573L12.001 20Z" fill="rgb(27,4,38)" fill-rule="evenodd" />
      </symbol>

      <symbol id="icon-private" viewBox="0 0 24 24">
        <path d="M17.5792 8.5332L13.7266 21.3754L24.0002 8.5332L17.5792 8.5332Z" fill-rule="nonzero" />
        <path d="M6.42108 8.5332L0 8.5332L10.2737 21.3754L6.42108 8.5332Z" fill-rule="nonzero" />
        <path d="M23.7632 7.11756L18.6485 2.0028C18.5166 1.87094 18.3378 1.79688 18.1513 1.79688L15.5469 1.79688L17.5421 7.11756L23.7632 7.11756Z" fill-rule="nonzero" />
        <path d="M6.45544 7.11756L8.45067 1.79688L5.8463 1.79688C5.65983 1.79688 5.48095 1.87094 5.34909 2.0028L0.234375 7.11756L6.45544 7.11756Z" fill-rule="nonzero" />
        <path d="M16.1003 8.5332L7.89844 8.5332L11.9993 22.2029L16.1003 8.5332Z" fill-rule="nonzero" />
        <path d="M7.96875 7.11756L16.0305 7.11756L14.0352 1.79688L9.96403 1.79688L7.96875 7.11756Z" fill-rule="nonzero" />
      </symbol>

      <symbol id="icon-affiliate" viewBox="0 0 24 24">
        <path d="M7.59564 10.8462C8.98692 8.16744 12.1587 7.55137 14.1874 8.51213C16.3906 9.55386 17.3446 12.5171 16.4343 16.0198C15.8191 18.3867 13.5086 21.258 11.4351 23.2824C11.2237 23.4892 10.915 23.5702 10.6265 23.4947C7.79583 22.7561 4.32771 21.3992 2.58526 19.6506C0.00738049 17.0616 -0.681546 14.0305 0.694071 12.0499C1.96009 10.2246 5.02223 9.20698 7.59564 10.8462Z" fill-rule="evenodd" />
        <path d="M5.88121 3.26396C6.15865 3.85586 5.9337 4.57734 5.37732 4.87329C4.82243 5.16924 4.14607 4.92928 3.86863 4.33578L3.11879 2.73604C2.84135 2.14414 3.0663 1.42267 3.62268 1.12671C4.17757 0.830765 4.85393 1.07072 5.13137 1.66422L5.88121 3.26396Z" fill-rule="evenodd" />
        <path d="M17.1188 20.736C16.8413 20.1441 17.0663 19.4227 17.6227 19.1267C18.1776 18.8308 18.8539 19.0707 19.1314 19.6642L19.8812 21.264C20.1587 21.8559 19.9337 22.5773 19.3773 22.8733C18.8224 23.1692 18.1461 22.9293 17.8686 22.3358L17.1188 20.736Z" fill-rule="evenodd" />
        <path d="M1.73604 9.88121C1.14414 10.1587 0.422665 9.9337 0.126715 9.37732C-0.169235 8.82243 0.0707241 8.14608 0.664224 7.86863L2.26396 7.11879C2.85586 6.84135 3.57734 7.0663 3.87329 7.62268C4.16924 8.17757 3.92928 8.85393 3.33578 9.13137L1.73604 9.88121Z" fill-rule="evenodd" />
        <path d="M21.264 14.1188C21.8559 13.8413 22.5773 14.0663 22.8733 14.6227C23.1692 15.1776 22.9293 15.8539 22.3358 16.1314L20.736 16.8812C20.1441 17.1587 19.4227 16.9337 19.1267 16.3773C18.8308 15.8224 19.0707 15.1461 19.6642 14.8686L21.264 14.1188Z" fill-rule="evenodd" />
        <path d="M7.81564 8.71953C7.71499 8.45253 7.63111 8.18991 7.56512 7.93276C6.65587 4.43005 7.60874 1.46899 9.81196 0.426162C11.8407 -0.534595 15.0125 0.0814714 16.4037 2.76131C18.9772 1.12102 22.0393 2.13977 23.3053 3.96389C24.6798 5.9445 23.9898 8.9734 21.4219 11.5569C20.5619 12.4214 19.2959 13.2005 17.8811 13.8472C17.9863 10.8566 16.7281 8.49959 14.6725 7.5257C12.6739 6.58026 9.76276 6.86367 7.81564 8.71953Z" fill-rule="evenodd" />
      </symbol>

      <symbol id="icon-updates" viewBox="0 0 24 24">
        <path d="M19.5186 1.08048C19.3537 0.915747 19.1584 0.833107 18.9326 0.833107C18.7069 0.833107 18.5118 0.915747 18.3467 1.08048L16.6541 2.76042C15.7253 1.88358 14.6618 1.20417 13.4639 0.722509C12.2662 0.240806 11.0332 0 9.7658 0C7.37854 0 5.2953 0.722555 3.51571 2.16798C1.73608 3.61323 0.564251 5.49891 0 7.82547L0 7.91654C0 8.02938 0.0411832 8.12711 0.123686 8.20948C0.20619 8.29198 0.303789 8.33317 0.416621 8.33317L3.00774 8.33317C3.19879 8.33317 3.32891 8.23329 3.39841 8.03376C3.76295 7.16576 3.9929 6.65797 4.08849 6.51034C4.69607 5.52075 5.50336 4.74379 6.51037 4.17954C7.51746 3.61533 8.6025 3.33311 9.76562 3.33311C11.5106 3.33311 13.0253 3.92778 14.3101 5.11704L12.5129 6.91383C12.3484 7.07879 12.2657 7.27421 12.2657 7.49992C12.2657 7.72559 12.3484 7.92092 12.5129 8.08584C12.6781 8.2508 12.8735 8.33321 13.0992 8.33321L18.9326 8.33321C19.1583 8.33321 19.3537 8.2508 19.5186 8.08584C19.6833 7.92092 19.7658 7.72563 19.7658 7.49992L19.7658 1.66644C19.7658 1.44073 19.6838 1.24549 19.5186 1.08048Z" fill-rule="nonzero" transform="matrix(-1,0,0,1,21.7656,2)" />
        <path d="M19.2577 0.000547682L16.7577 0.000547682C16.5667 0.000547682 16.4365 0.10029 16.3673 0.300004C16.0028 1.16809 15.7726 1.67565 15.6773 1.82328C15.0695 2.81264 14.2622 3.58988 13.2554 4.15409C12.2483 4.71848 11.1633 5.00037 10.0001 5.00037C9.15813 5.00037 8.34642 4.84426 7.56526 4.53185C6.78401 4.21908 6.08513 3.77628 5.46888 3.20331L7.25281 1.41952C7.41768 1.25475 7.50018 1.05918 7.50018 0.833609C7.50018 0.607945 7.41768 0.41238 7.25281 0.247693C7.08785 0.0825946 6.8926 0 6.66689 0L0.833424 0C0.607578 0 0.412243 0.0825946 0.247327 0.247693C0.082412 0.412426 0 0.607989 0 0.833654L0 6.66713C0 6.89266 0.082412 7.08818 0.247373 7.25305C0.412425 7.41769 0.60776 7.50061 0.83347 7.50061C1.05913 7.50061 1.25438 7.41774 1.41938 7.25305L3.09905 5.5732C4.02793 6.45844 5.08487 7.14004 6.26979 7.61745C7.45471 8.09505 8.68086 8.33353 9.94814 8.33353C12.3268 8.33353 14.4014 7.61088 16.1722 6.16564C17.943 4.72044 19.1062 2.8344 19.662 0.508065C19.6708 0.490734 19.6749 0.460314 19.6749 0.417079C19.6749 0.304064 19.6335 0.206738 19.551 0.123961C19.4685 0.0419138 19.3708 0.000547682 19.2577 0.000547682Z" fill-rule="nonzero" transform="matrix(-1,0,0,1,22,13.667)" />
      </symbol>

      <symbol id="icon-settings" viewBox="0 0 24 24">
        <path d="M14.9398 0.773581C14.9398 0.773581 15.7758 3.19928 15.7758 3.19814C16.4713 3.49621 17.1277 3.8757 17.7327 4.32891L20.2521 3.83998C20.5446 3.78307 20.846 3.88686 21.0424 4.11126C22.0639 5.28335 22.8486 6.64188 23.352 8.11309C23.4491 8.39553 23.3878 8.70809 23.1924 8.93354C23.1924 8.93354 21.5102 10.8703 21.5102 10.8692C21.5995 11.6204 21.5995 12.3795 21.5102 13.1296L23.1924 15.0663C23.3878 15.2918 23.4491 15.6044 23.352 15.8868C22.8486 17.358 22.0639 18.7165 21.0424 19.8886C20.846 20.113 20.5446 20.2168 20.2521 20.1599C20.2521 20.1599 17.7327 19.671 17.7338 19.671C17.1277 20.1242 16.4702 20.5037 15.7758 20.8006L14.9398 23.2263C14.8426 23.5087 14.6027 23.7174 14.3102 23.7755C12.7843 24.0747 11.2148 24.0747 9.68879 23.7755C9.39633 23.7174 9.15635 23.5087 9.05921 23.2263C9.05921 23.2263 8.22314 20.8006 8.22314 20.8017C7.52768 20.5037 6.87135 20.1242 6.26628 19.6709L3.74686 20.16C3.45439 20.2169 3.153 20.1131 2.95653 19.8887C1.93512 18.7166 1.15039 17.3581 0.646931 15.8868C0.549793 15.6044 0.61121 15.2919 0.806537 15.0664C0.806537 15.0664 2.48879 13.1297 2.48879 13.1307C2.39949 12.3795 2.39949 11.6204 2.48879 10.8703L0.806581 8.93354C0.611254 8.70805 0.549836 8.39549 0.646931 8.11309C1.15039 6.64184 1.93512 5.28335 2.95649 4.11121C3.15296 3.88682 3.45435 3.78303 3.74682 3.83998C3.74682 3.83998 6.26624 4.32891 6.26514 4.32891C6.8713 3.8757 7.52877 3.49616 8.22309 3.19923L9.05917 0.773581C9.15631 0.491185 9.39628 0.282419 9.68875 0.224372C11.2147 -0.0747907 12.7842 -0.0747907 14.3101 0.224372C14.6027 0.282419 14.8426 0.491141 14.9398 0.773581ZM11.9995 7.06493C9.27577 7.06493 7.0644 9.27626 7.0644 12C7.0644 14.7238 9.27572 16.9351 11.9995 16.9351C14.7233 16.9351 16.9345 14.7237 16.9345 12C16.9345 9.27626 14.7232 7.06493 11.9995 7.06493ZM11.9995 8.73935C13.7989 8.73935 15.2601 10.2006 15.2601 12C15.2601 13.7994 13.7989 15.2606 11.9995 15.2606C10.2 15.2606 8.73886 13.7994 8.73886 12C8.73886 10.2005 10.2 8.73935 11.9995 8.73935Z" fill-rule="evenodd" />
      </symbol>

      <symbol id="icon-logout" viewBox="0 0 24 24">
        <path d="M17 2L7 2C5.3 2 4 3.3 4 5L4 11L12.6 11L10.3 8.7C9.9 8.3 9.9 7.7 10.3 7.3C10.7 6.9 11.3 6.9 11.7 7.3L15.7 11.3C16.1 11.7 16.1 12.3 15.7 12.7L11.7 16.7C11.3 17.1 10.7 17.1 10.3 16.7C9.9 16.3 9.9 15.7 10.3 15.3L12.6 13L4 13L4 19C4 20.7 5.3 22 7 22L17 22C18.7 22 20 20.7 20 19L20 5C20 3.3 18.7 2 17 2Z" fill-rule="nonzero" />
      </symbol>

      <symbol id="icon-user" viewBox="0 0 24 24">
        <path d="M12 0C8.51067 0 5.67188 2.8388 5.67188 6.32812C5.67188 9.81745 8.51067 12.6562 12 12.6562C15.4893 12.6562 18.3281 9.81745 18.3281 6.32812C18.3281 2.8388 15.4893 0 12 0Z"/>
        <path d="M19.8734 16.7904C18.1409 15.0313 15.8442 14.0625 13.4062 14.0625L10.5938 14.0625C8.15588 14.0625 5.85909 15.0313 4.12659 16.7904C2.40258 18.5409 1.45312 20.8515 1.45312 23.2969C1.45312 23.6852 1.76794 24 2.15625 24L21.8438 24C22.2321 24 22.5469 23.6852 22.5469 23.2969C22.5469 20.8515 21.5974 18.5409 19.8734 16.7904Z"/>
      </symbol>

      <symbol id="icon-shield" viewBox="0 0 24 24">
        <path d="M9.81773 1.61194C11.0456 0.462687 12.9544 0.462687 14.1823 1.61194L15.2456 2.6071C15.5453 2.88759 15.9366 3.04969 16.3469 3.06326L17.8024 3.11142C19.4833 3.16704 20.833 4.51673 20.8886 6.19763L20.9367 7.65319C20.9503 8.0634 21.1124 8.45475 21.3929 8.75445L22.3881 9.81773C23.5373 11.0456 23.5373 12.9544 22.3881 14.1823L21.3929 15.2456C21.1124 15.5453 20.9503 15.9366 20.9367 16.3469L20.8886 17.8024C20.833 19.4833 19.4833 20.833 17.8024 20.8886L16.3468 20.9367C15.9366 20.9503 15.5453 21.1124 15.2456 21.3929L14.1823 22.3881C12.9544 23.5373 11.0456 23.5373 9.81773 22.3881L8.75445 21.3929C8.45475 21.1124 8.0634 20.9503 7.65319 20.9367L6.19763 20.8886C4.51673 20.833 3.16704 19.4833 3.11142 17.8024L3.06326 16.3469C3.04969 15.9366 2.88759 15.5453 2.6071 15.2456L1.61194 14.1823C0.462687 12.9544 0.462687 11.0456 1.61194 9.81773L2.6071 8.75445C2.88759 8.45475 3.04969 8.0634 3.06326 7.65319L3.11142 6.19763C3.16704 4.51673 4.51673 3.16704 6.19763 3.11142L7.65319 3.06326C8.0634 3.04969 8.45475 2.88759 8.75445 2.6071L9.81773 1.61194ZM16.6725 9.51255C16.9556 9.21019 16.94 8.73555 16.6376 8.4525C16.3352 8.16941 15.8606 8.18505 15.5775 8.48745L10.508 13.9026L8.4225 11.675C8.13945 11.3726 7.66481 11.3569 7.36245 11.64C7.06005 11.9231 7.04441 12.3977 7.3275 12.7001L9.96045 15.5126C10.1023 15.6641 10.3005 15.75 10.508 15.75C10.7155 15.75 10.9137 15.6641 11.0555 15.5126L16.6725 9.51255Z"/>
      </symbol>

      <symbol id="icon-crown" viewBox="0 0 24 24">
        <path d="M24 5.61959L18.0466 7.74112L18.401 8.44989C18.9054 9.46009 18.4193 10.7076 17.1132 11.0707C17.0967 11.0762 15.2877 11.5618 14.7383 9.91619L14.2088 8.32555L15.7156 6.81803L11.9973 1.24121L8.27889 6.81803L9.78575 8.32555L9.25622 9.91619C8.91349 10.9429 8.17795 11.2891 6.87438 11.0412C6.73204 10.9718 5.98866 10.9396 5.5681 10.024C5.33597 9.51991 5.34558 8.94646 5.59351 8.44989L5.94722 7.74177L0 5.61888L2.6534 15.8715H8.89291L11.9973 12.7671L15.1016 15.8715H21.3425L24 5.61959Z"/>
        <path d="M0 0H2.57157V2.57157H0V0Z" transform="matrix(0.707107,-0.707107,0.707107,0.707107,10.1758,16.5742)"/>
        <path d="M8.89383 17.2783H2.85547V20.0915H11.707L8.89383 17.2783Z"/>
        <path d="M21.1406 17.2783H15.1022L12.2891 20.0915H21.1406V17.2783Z"/>
      </symbol>

      <symbol id="icon-trash" viewBox="0 0 24 24">
        <path d="M20.125 3.25H15.4375L15.0703 2.51953C14.9116 2.20101 14.5863 1.99973 14.2304 2H9.76564C9.41044 1.99865 9.08572 2.20045 8.92972 2.51953L8.56252 3.25H3.875C3.52984 3.25 3.25 3.52985 3.25 3.875V5.125C3.25 5.47017 3.52984 5.75 3.875 5.75H20.125C20.4702 5.75 20.75 5.47017 20.75 5.125V3.875C20.75 3.52985 20.4702 3.25 20.125 3.25Z"/>
        <path d="M5.32812 20.2422C5.39 21.2302 6.20928 21.9999 7.1992 22H16.8008C17.7907 21.9999 18.61 21.2302 18.6719 20.2422L19.5 7H4.5L5.32812 20.2422Z"/>
      </symbol>

      <symbol id="icon-edit" viewBox="0 0 24 24">
        <path d="M12.64 5.41992L2.35 15.7099C1.97083 16.0898 1.7312 16.5867 1.67 17.1199L1.26 20.7199C1.23328 20.9731 1.26025 21.229 1.33917 21.4711C1.41808 21.7131 1.54716 21.9357 1.71798 22.1245C1.8888 22.3132 2.0975 22.4638 2.33048 22.5664C2.56345 22.669 2.81544 22.7213 3.07 22.7199L3.28 22.7199L6.88 22.3099C7.41111 22.2485 7.90692 22.0129 8.29 21.6399L18.58 11.3399L12.64 5.41992Z" fill-rule="nonzero"/>
        <path d="M22.0592 4.54965L19.4492 1.93965C19.2309 1.72044 18.9714 1.54651 18.6857 1.42782C18.4 1.30914 18.0936 1.24805 17.7842 1.24805C17.4748 1.24805 17.1685 1.30914 16.8828 1.42782C16.597 1.54651 16.3376 1.72044 16.1192 1.93965L13.6992 4.35965L19.6392 10.2997L22.0592 7.87965C22.2784 7.66131 22.4524 7.40184 22.571 7.11611C22.6897 6.83039 22.7508 6.52404 22.7508 6.21465C22.7508 5.90526 22.6897 5.59891 22.571 5.31319C22.4524 5.02746 22.2784 4.76799 22.0592 4.54965Z" fill-rule="nonzero"/>
      </symbol>

      <symbol id="icon-plus" viewBox="0 0 24 24">
        <path d="M19 13h-6v6h-2v-6H5v-2h6V5h2v6h6v2z"/>
      </symbol>

      <symbol id="icon-close" viewBox="0 0 24 24">
        <path d="M1.30516 13.9352L4.06516 18.4352C4.41026 18.9914 4.89185 19.4502 5.46419 19.7678C6.03652 20.0855 6.68058 20.2516 7.33516 20.2502L19.4252 20.2502C19.9226 20.2552 20.4161 20.1621 20.8775 19.9764C21.3389 19.7906 21.7593 19.5158 22.1145 19.1675C22.4697 18.8193 22.7528 18.4045 22.9476 17.9468C23.1425 17.4892 23.2453 16.9976 23.2502 16.5002L23.2502 7.50019C23.2453 7.00279 23.1425 6.51122 22.9476 6.05356C22.7528 5.59589 22.4697 5.1811 22.1145 4.83286C21.7593 4.48463 21.3389 4.20978 20.8775 4.02402C20.4161 3.83825 19.9226 3.7452 19.4252 3.75019L7.33516 3.75019C6.68058 3.74883 6.03652 3.91487 5.46419 4.23254C4.89185 4.55021 4.41026 5.00896 4.06516 5.56519L1.30516 10.0652C0.944828 10.6463 0.753906 11.3164 0.753906 12.0002C0.753906 12.6839 0.944828 13.3541 1.30516 13.9352ZM9.97516 9.52519C9.90507 9.4565 9.84929 9.3746 9.81105 9.28422C9.77281 9.19384 9.75287 9.09677 9.75237 8.99864C9.75187 8.9005 9.77084 8.80324 9.80817 8.71248C9.84549 8.62172 9.90044 8.53926 9.96984 8.46986C10.0392 8.40047 10.1217 8.34552 10.2125 8.30819C10.3032 8.27087 10.4005 8.2519 10.4986 8.2524C10.5967 8.25289 10.6938 8.27284 10.7842 8.31108C10.8746 8.34932 10.9565 8.4051 11.0252 8.47519L13.5002 10.9502L15.9752 8.47519C16.1149 8.33827 16.303 8.26202 16.4986 8.263C16.6942 8.26399 16.8816 8.34214 17.0199 8.48047C17.1582 8.6188 17.2364 8.80612 17.2374 9.00175C17.2383 9.19737 17.1621 9.38547 17.0252 9.52519L14.5502 12.0002L17.0252 14.4752C17.0962 14.5429 17.1528 14.6244 17.1914 14.7146C17.2301 14.8049 17.25 14.902 17.25 15.0002C17.25 15.0984 17.2301 15.1955 17.1914 15.2857C17.1528 15.376 17.0962 15.4574 17.0252 15.5252C16.9574 15.5962 16.876 15.6528 16.7857 15.6914C16.6955 15.7301 16.5983 15.75 16.5002 15.75C16.402 15.75 16.3048 15.7301 16.2146 15.6914C16.1244 15.6528 16.0429 15.5962 15.9752 15.5252L13.5002 13.0502L11.0252 15.5252C10.9574 15.5962 10.876 15.6528 10.7857 15.6914C10.6955 15.7301 10.5983 15.75 10.5002 15.75C10.402 15.75 10.3049 15.7301 10.2146 15.6914C10.1244 15.6528 10.0429 15.5962 9.97516 15.5252C9.90412 15.4574 9.84756 15.376 9.80891 15.2857C9.77027 15.1955 9.75034 15.0984 9.75034 15.0002C9.75034 14.902 9.77027 14.8049 9.80891 14.7146C9.84756 14.6244 9.90412 14.5429 9.97516 14.4752L12.4502 12.0002L9.97516 9.52519Z"/>
      </symbol>

      <symbol id="icon-arrow-down" viewBox="0 0 24 24">
        <path stroke-linecap="round" stroke-linejoin="round" stroke-width="2" d="M19 9l-7 7-7-7"></path>
      </symbol>

      <symbol id="icon-check" viewBox="0 0 16 16">
        <path fill-opacity="0.6" opacity="0.6" d="M8 0C3.60594 0 0 3.60594 0 8C0 12.3941 3.60594 16 8 16C12.3941 16 16 12.3941 16 8C16 3.60594 12.3941 0 8 0ZM7.03184 11.6388L3.52856 8.1355L4.85425 6.80981L7.09319 9.04875L11.588 4.96275L12.8496 6.34978L7.03184 11.6388Z"/>
      </symbol>

      <symbol id="icon-refresh" viewBox="0 0 24 24">
        <path stroke-linecap="round" stroke-linejoin="round" stroke-width="2" d="M4 4v5h.582m15.356 2A8.001 8.001 0 004.582 9m0 0H9m11 11v-5h-.581m0 0a8.003 8.003 0 01-15.357-2m15.357 2H15"></path>
      </symbol>  

      <symbol id="icon-google" viewBox="0 0 24 24">
        <path fill="currentColor" d="M22.56 12.25c0-.78-.07-1.53-.2-2.25H12v4.26h5.92c-.26 1.37-1.04 2.53-2.21 3.31v2.77h3.57c2.08-1.92 3.28-4.74 3.28-8.09z"/>
        <path fill="currentColor" d="M12 23c2.97 0 5.46-.98 7.28-2.66l-3.57-2.77c-.98.66-2.23 1.06-3.71 1.06-2.86 0-5.29-1.93-6.16-4.53H2.18v2.84C3.99 20.53 7.7 23 12 23z"/>
        <path fill="currentColor" d="M5.84 14.09c-.22-.66-.35-1.36-.35-2.09s.13-1.43.35-2.09V7.07H2.18C1.43 8.55 1 10.22 1 12s.43 3.45 1.18 4.93l2.85-2.22.81-.62z"/>
        <path fill="currentColor" d="M12 5.38c1.62 0 3.06.56 4.21 1.64l3.15-3.15C17.45 2.09 14.97 1 12 1 7.7 1 3.99 3.47 2.18 7.07l3.66 2.84c.87-2.6 3.3-4.53 6.16-4.53z"/>
      </symbol>

      <symbol id="icon-telegram" viewBox="0 0 24 24" fill="currentColor">
        <path d="M9.41718 15.1814L9.02018 20.7654C9.58818 20.7654 9.83418 20.5214 10.1292 20.2284L12.7922 17.6834L18.3102 21.7244C19.3222 22.2884 20.0352 21.9914 20.3082 20.7934L23.9302 3.82141L23.9312 3.82041C24.2522 2.32441 23.3902 1.73941 22.4042 2.10641L1.11418 10.2574C-0.338822 10.8214 -0.316822 11.6314 0.867178 11.9984L6.31018 13.6914L18.9532 5.78041C19.5482 5.38641 20.0892 5.60441 19.6442 5.99841L9.41718 15.1814Z"/>
      </symbol>

      <symbol id="icon-apple" viewBox="0 0 24 24" fill="currentColor">
        <path d="M16.6212 0C16.677 0 16.7329 0 16.7919 0C16.9289 1.69253 16.2829 2.95719 15.4977 3.87301C14.7273 4.78251 13.6724 5.6646 11.9662 5.53076C11.8523 3.86247 12.4994 2.69161 13.2835 1.77789C14.0107 0.92636 15.3439 0.168621 16.6212 0Z"/>
        <path d="M21.7851 17.6164C21.7851 17.6332 21.7851 17.648 21.7851 17.6638C21.3056 19.1161 20.6216 20.3607 19.7869 21.5157C19.025 22.5643 18.0912 23.9755 16.424 23.9755C14.9833 23.9755 14.0264 23.0491 12.5499 23.0238C10.9881 22.9985 10.1292 23.7984 8.70116 23.9997C8.53781 23.9997 8.37446 23.9997 8.21427 23.9997C7.16566 23.848 6.3194 23.0175 5.70288 22.2693C3.88493 20.0582 2.48011 17.2022 2.21875 13.5474C2.21875 13.189 2.21875 12.8318 2.21875 12.4735C2.32941 9.85772 3.60039 7.73099 5.28976 6.7003C6.18134 6.15228 7.407 5.68541 8.77177 5.89408C9.35668 5.98471 9.95423 6.18495 10.478 6.38308C10.9744 6.57383 11.5951 6.91213 12.1832 6.89421C12.5815 6.88262 12.9778 6.67501 13.3793 6.52852C14.5555 6.1038 15.7084 5.61691 17.2281 5.8456C19.0545 6.12172 20.3507 6.93321 21.1517 8.18521C19.6067 9.16848 18.3853 10.6502 18.5939 13.1806C18.7794 15.4791 20.1157 16.8239 21.7851 17.6164Z"/>
      </symbol>

      <symbol id="icon-password" viewBox="0 0 24 24" fill="currentColor">
        <path d="M12 4.84692C7.41454 4.84692 3.25621 7.35567 0.187788 11.4305C-0.0625959 11.7644 -0.0625959 12.2308 0.187788 12.5646C3.25621 16.6444 7.41454 19.1532 12 19.1532C16.5855 19.1532 20.7438 16.6444 23.8122 12.5695C24.0626 12.2357 24.0626 11.7693 23.8122 11.4354C20.7438 7.35567 16.5855 4.84692 12 4.84692ZM12.3289 17.0372C9.28506 17.2286 6.7714 14.7199 6.96287 11.6711C7.11998 9.15745 9.15741 7.12001 11.6711 6.96291C14.7149 6.77144 17.2286 9.28019 17.0371 12.329C16.8751 14.8377 14.8377 16.8752 12.3289 17.0372ZM12.1767 14.7101C10.537 14.8132 9.18196 13.4631 9.28997 11.8233C9.37343 10.4683 10.4732 9.37347 11.8282 9.28509C13.4679 9.182 14.823 10.5321 14.7149 12.1719C14.6266 13.5318 13.5268 14.6266 12.1767 14.7101Z"/>
      </symbol>

      <symbol id="icon-PayCard" viewBox="0 0 24 24">
        <path d="M21.8438 3.75H2.15625C0.967312 3.75 0 4.71731 0 5.90625V18.0938C0 19.2827 0.967312 20.25 2.15625 20.25H21.8438C23.0327 20.25 24 19.2827 24 18.0938V5.90625C24 4.71731 23.0327 3.75 21.8438 3.75ZM7.5 10.3125C7.5 11.243 6.74302 12 5.8125 12H4.6875C3.75698 12 3 11.243 3 10.3125V9.1875C3 8.25698 3.75698 7.5 4.6875 7.5H5.8125C6.74302 7.5 7.5 8.25698 7.5 9.1875V10.3125ZM17.1421 14.1427C16.9796 14.1427 16.8159 14.0901 16.6783 13.9816C16.353 13.7252 16.2972 13.2536 16.5536 12.9283C16.7639 12.6617 16.875 12.3406 16.875 12C16.875 11.6594 16.7639 11.3383 16.5537 11.0716C16.2972 10.7464 16.3531 10.2748 16.6784 10.0183C17.0036 9.76195 17.4752 9.81769 17.7317 10.143C18.1465 10.6693 18.375 11.3288 18.375 12C18.375 12.6712 18.1465 13.3307 17.7316 13.857C17.5837 14.0447 17.364 14.1427 17.1421 14.1427ZM19.5627 15.7554C19.4146 15.9205 19.2099 16.0045 19.0043 16.0045C18.8258 16.0045 18.6468 15.9413 18.5036 15.8127C18.1953 15.5361 18.1696 15.0619 18.4463 14.7536C19.1258 13.9964 19.5 13.0185 19.5 12C19.5 10.9815 19.1258 10.0036 18.4463 9.24638C18.1696 8.93808 18.1953 8.46389 18.5036 8.18728C18.8119 7.91067 19.286 7.93627 19.5627 8.24456C20.4895 9.27741 21 10.6111 21 12C21 13.3889 20.4895 14.7226 19.5627 15.7554Z" fill="currentColor"/>
      </symbol>

      <symbol id="icon-PayCrypto" viewBox="0 0 24 24">
        <path d="M16.0004 8.00016C11.4219 8.00016 8.00077 6.19021 8.00077 4.57182C8.00077 2.95358 11.4219 1.14355 16.0004 1.14355C20.5788 1.14355 23.9999 2.95358 23.9999 4.57182C23.9999 6.19021 20.5788 8.00016 16.0004 8.00016Z" fill="currentColor"/>
        <path d="M16.0004 21.714C15.3322 21.714 14.689 21.6751 14.0772 21.6043C14.5929 20.9415 15.0194 20.2061 15.3389 19.4162C15.5584 19.4236 15.7787 19.4287 16.0005 19.4287C18.6166 19.4287 21.0942 18.9103 22.9765 17.9691C23.3471 17.7838 23.6882 17.5847 23.9999 17.3739V18.2857C23.9999 19.9039 20.5789 21.714 16.0004 21.714Z" fill="currentColor"/>
        <path d="M16.0004 17.1427C15.9769 17.1427 15.9538 17.1424 15.9305 17.1423C15.9773 16.7677 16.0018 16.3862 16.0018 15.9991C16.0018 15.6121 15.9774 15.2308 15.9305 14.8565C15.9538 14.8565 15.977 14.8574 16.0004 14.8574C18.6165 14.8574 21.094 14.339 22.9764 13.3978C23.3471 13.2125 23.6883 13.0134 24 12.8027V13.7144C23.9999 15.3327 20.5789 17.1427 16.0004 17.1427Z" fill="currentColor"/>
        <path d="M16.0004 12.5713C15.7736 12.5713 15.5499 12.5667 15.329 12.5581C14.9742 11.6876 14.4894 10.8837 13.8982 10.1707C14.5826 10.2461 15.286 10.2861 16.0004 10.2861C18.6165 10.2861 21.094 9.76772 22.9764 8.82651C23.3471 8.64112 23.6883 8.44209 24 8.23132V9.14312C23.9999 10.7614 20.5789 12.5713 16.0004 12.5713Z" fill="currentColor"/>
        <path d="M12.5745 12.2111C13.069 12.9546 13.4223 13.7996 13.5961 14.7076C13.6764 15.1261 13.7188 15.5579 13.7188 15.9995C13.7188 16.3315 13.6945 16.6579 13.6487 16.9774C13.5362 17.7624 13.2903 18.5045 12.9347 19.1807C12.5617 19.8901 12.0681 20.5268 11.4812 21.0628C10.2614 22.177 8.6391 22.8574 6.86085 22.8574C3.0794 22.8574 0.00294018 19.781 0.00294018 15.9995C0.00294018 12.218 3.0794 9.1416 6.86085 9.1416C7.25167 9.1416 7.63487 9.17498 8.0081 9.23807C9.90911 9.55955 11.5465 10.6659 12.5745 12.2111Z" fill="currentColor"/>
      </symbol>

      <symbol id="icon-DocCheck" viewBox="0 0 24 24">
        <path d="M14.25 0H2.75C1.23 0 0 1.23 0 2.75V18.25C0 19.77 1.23 21 2.75 21H10.9C10.06 19.67 9.5 18.1 9.5 16.3V13.86C9.35 13.95 9.18 14 9 14H4C3.45 14 3 13.55 3 13C3 12.45 3.45 12 4 12H9C9.19 12 9.36 12.05 9.51 12.14C9.55 11.29 9.95 10.51 10.58 10H4C3.45 10 3 9.55 3 9C3 8.45 3.45 8 4 8H13C13.42 8 13.78 8.26 13.93 8.63L16.78 7.66C16.85 7.63 16.92 7.61 17 7.6V2.75C17 1.23 15.77 0 14.25 0ZM8 6H4C3.45 6 3 5.55 3 5C3 4.45 3.45 4 4 4H8C8.55 4 9 4.45 9 5C9 5.55 8.55 6 8 6Z" fill="currentColor"/>
        <path d="M23.323 11.3392L18.073 9.55325C17.864 9.48225 17.637 9.48225 17.428 9.55325L12.178 11.3392C11.773 11.4772 11.5 11.8583 11.5 12.2863V16.3043C11.5 21.3713 17.119 23.8193 17.358 23.9213C17.484 23.9743 17.618 24.0003 17.751 24.0003C17.884 24.0003 18.018 23.9743 18.143 23.9203C18.382 23.8183 24.001 21.3713 24.001 16.3043V12.2863C24.001 11.8573 23.729 11.4772 23.323 11.3392ZM21.301 15.1003L18.301 19.1003C18.127 19.3323 17.862 19.4773 17.572 19.4973C17.548 19.4993 17.524 19.5003 17.501 19.5003C17.236 19.5003 16.982 19.3963 16.794 19.2073L14.794 17.2073C14.403 16.8163 14.403 16.1843 14.794 15.7933C15.185 15.4023 15.817 15.4023 16.208 15.7933L17.393 16.9783L19.701 13.9002C20.032 13.4592 20.659 13.3682 21.1 13.7002C21.543 14.0312 21.633 14.6583 21.301 15.1003Z" fill="currentColor"/>
      </symbol>

      <symbol id="icon-BookAward" viewBox="0 0 24 24">
        <path fill="currentColor" d="M21.414 0H2.586C2.198 0 1.883 0.315 1.883 0.703V13.883c0 1.347 0.545 2.726 1.621 4.098 0.821 1.048 1.957 2.101 3.377 3.128 2.385 1.726 4.733 2.785 4.832 2.83 0.091 0.041 0.189 0.062 0.287 0.062s0.196-0.021 0.287-0.062c0.099-0.044 2.447-1.103 4.832-2.83 1.42-1.027 2.556-2.08 3.377-3.128 1.076-1.372 1.621-2.751 1.621-4.098V0.703C22.117 0.315 21.802 0 21.414 0ZM11.297 17.543c-1.545-0.245-2.829-1.285-3.419-2.686l-1.406 1.406c-0.137 0.138-0.317 0.206-0.497 0.206s-0.36-0.068-0.497-0.206c-0.275-0.275-0.275-0.72 0-0.995l2.055-2.055c-0.001-0.028-0.001-0.056-0.001-0.084v-1.556h3.766v5.969ZM18.522 16.263c-0.137 0.138-0.317 0.206-0.497 0.206s-0.36-0.068-0.497-0.206l-1.406-1.406c-0.589 1.401-1.873 2.441-3.419 2.686v-5.969h3.766v1.556c0 0.028 0.001 0.056 0.001 0.084l2.055 2.055c0.275 0.275 0.275 0.72 0 0.995ZM18.522 7.978l-2.055 2.055c0.001 0.028 0.001 0.056 0.001 0.084v0.05h-8.938v-0.05c0-0.028 0.001-0.056 0.001-0.084L5.478 7.978c-0.275-0.275-0.275-0.72 0-0.995s0.72-0.275 0.995 0l1.406 1.406c0.524-1.247 1.599-2.208 2.918-2.577L9.909 4.482c-0.215-0.323-0.128-0.76 0.195-0.975s0.76-0.128 0.975 0.195l0.921 1.382 0.921-1.382c0.215-0.323 0.652-0.41 0.975-0.195s0.41 0.652 0.195 0.975l-0.888 1.331c1.319 0.369 2.393 1.33 2.917 2.577l1.406-1.406c0.275-0.275 0.72-0.275 0.995 0s0.275 0.72 0 0.995Z"/>
      </symbol>

      <symbol id="icon-watch" viewBox="0 0 24 24">
        <path d="M5.17188 12.4875C5.17188 16.275 8.24688 19.3125 11.9969 19.3125C15.7469 19.3125 18.8219 16.2375 18.8219 12.4875C18.8219 8.7 15.7844 5.625 11.9969 5.625C8.20938 5.625 5.17188 8.7 5.17188 12.4875ZM11.2469 12.1125C11.2469 10.9125 11.2469 9.7125 11.2469 8.475C11.2469 8.0625 11.5844 7.725 11.9969 7.725C12.4094 7.725 12.7469 8.1 12.7469 8.475V9V11.8875H14.9219C15.3344 11.8875 15.6719 12.225 15.6719 12.6375C15.6719 13.05 15.2969 13.3875 14.9219 13.3875C13.9469 13.3875 12.9719 13.3875 11.9969 13.3875C11.5844 13.3875 11.2469 13.05 11.2469 12.6375C11.2469 12.45 11.2469 12.3 11.2469 12.1125Z" fill="currentColor"/>
        <path d="M21.1871 9.56261C20.0621 6.00011 16.9121 3.45011 13.2371 2.92511C13.2746 2.81261 13.3121 2.70011 13.3121 2.62511C13.3121 2.32511 13.1246 2.06261 12.8996 1.95011C12.5996 1.80011 12.2996 1.87511 12.0371 2.10011C11.7746 2.32511 11.5121 2.55011 11.2496 2.77511C11.1371 2.88761 10.9871 2.96261 10.9121 3.07511C10.8371 3.18761 10.7996 3.33761 10.7996 3.48761C10.7996 3.82511 11.0246 4.01261 11.2121 4.27511C11.4371 4.53761 11.6621 4.83761 11.9246 5.10011C12.3371 5.58761 13.1996 5.21261 13.1996 4.61261V4.57511C13.1996 4.53761 13.1996 4.50011 13.1996 4.46261C15.8621 4.87511 18.2246 6.56261 19.4246 9.03761C20.7746 11.8501 20.3246 15.3751 18.2996 17.7376C16.2746 20.1376 13.0121 21.1876 9.9746 20.4001C6.9746 19.6126 4.6871 17.1376 4.0871 14.1376C3.2996 10.3876 5.3996 6.63761 8.8121 5.06261C9.1871 4.91261 9.2621 4.35011 9.0746 4.05011C8.8496 3.67511 8.4371 3.60011 8.0621 3.78761C4.4996 5.40011 2.2121 9.15011 2.4371 13.0876C2.6621 16.8001 4.9871 20.0626 8.3996 21.4876C11.8496 22.9126 15.8996 22.1626 18.5996 19.6501C21.2621 17.0626 22.3121 13.0876 21.1871 9.56261Z" fill="currentColor"/>
      </symbol>

      <symbol id="icon-voice" viewBox="0 0 24 24">
        <path fill="currentColor" d="M18 8.5V15.5C18 16.328 17.328 17 16.5 17C15.672 17 15 16.328 15 15.5V8.5C15 7.672 15.672 7 16.5 7C17.328 7 18 7.672 18 8.5ZM11.5 0C10.672 0 10 0.672 10 1.5V22.5C10 23.328 10.672 24 11.5 24C12.328 24 13 23.328 13 22.5V1.5C13 0.672 12.328 0 11.5 0ZM21.5 4C20.672 4 20 4.672 20 5.5V18.5C20 19.328 20.672 20 21.5 20C22.328 20 23 19.328 23 18.5V5.5C23 4.672 22.328 4 21.5 4ZM6.5 5C5.672 5 5 5.672 5 6.5V17.5C5 18.328 5.672 19 6.5 19C7.328 19 8 18.328 8 17.5V6.5C8 5.672 7.328 5 6.5 5ZM1.5 9C0.672 9 0 9.672 0 10.5V13.5C0 14.328 0.672 15 1.5 15C2.328 15 3 14.328 3 13.5V10.5C3 9.672 2.328 9 1.5 9Z"/>
      </symbol>

      <symbol id="icon-picture" viewBox="0 0 24 24">
        <path d="M15 10.5C15.8284 10.5 16.5 9.82843 16.5 9C16.5 8.17157 15.8284 7.5 15 7.5C14.1716 7.5 13.5 8.17157 13.5 9C13.5 9.82843 14.1716 10.5 15 10.5Z" fill="#FAFAFA"/>
        <path d="M12.3112 20.3864H4.73428C4.17065 20.3836 3.63105 20.1577 3.23348 19.758C2.83591 19.3584 2.61273 18.8175 2.61274 18.2536V15.572L7.80686 11.5758L15.0781 17.0644C15.1521 17.1196 15.2388 17.155 15.3302 17.1674C15.4217 17.1797 15.5147 17.1686 15.6006 17.135L16.954 16.6123C17.0427 16.5754 17.1223 16.5199 17.1877 16.4495C17.253 16.3792 17.3025 16.2956 17.3329 16.2045L17.4034 16.0268C17.4473 15.9165 17.4537 15.7948 17.4216 15.6805C17.3895 15.5662 17.3207 15.4656 17.2258 15.3943L8.23796 8.625C8.11022 8.52792 7.95421 8.47536 7.79379 8.47536C7.63337 8.47536 7.47736 8.52792 7.34963 8.625L2.61274 12.2841V4.74637C2.61274 4.18073 2.83736 3.63827 3.23718 3.2383C3.63701 2.83834 4.17929 2.61364 4.74473 2.61364H18.2473C18.8128 2.61364 19.3551 2.83834 19.7549 3.2383C20.1547 3.63827 20.3793 4.18073 20.3793 4.74637V11.4765C20.3821 11.6219 20.4415 11.7604 20.5451 11.8625C20.6486 11.9646 20.7879 12.0221 20.9332 12.0227C21.3781 12.0214 21.8173 12.1234 22.2161 12.3207C22.2989 12.3632 22.3912 12.3835 22.4842 12.3796C22.5772 12.3757 22.6675 12.3478 22.7465 12.2986C22.8254 12.2493 22.8903 12.1805 22.9347 12.0987C22.9791 12.0169 23.0016 11.925 22.9999 11.8319V4.74637C22.9999 4.12241 22.8769 3.50457 22.638 2.9282C22.3991 2.35183 22.0489 1.82825 21.6074 1.38741C21.166 0.946566 20.642 0.597114 20.0655 0.359049C19.4889 0.120983 18.8711 -0.0010243 18.2473 6.47711e-06H4.74473C3.48635 6.47711e-06 2.27951 0.500068 1.3897 1.39018C0.49989 2.2803 0 3.48756 0 4.74637V18.2536C0 19.5124 0.49989 20.7197 1.3897 21.6098C2.27951 22.4999 3.48635 23 4.74473 23H13.1577C13.2629 23.0003 13.3658 22.9699 13.4539 22.9126C13.542 22.8552 13.6116 22.7735 13.654 22.6773C13.6964 22.581 13.7098 22.4745 13.6927 22.3708C13.6756 22.267 13.6286 22.1705 13.5575 22.0931C13.2002 21.7327 12.9497 21.2804 12.8338 20.7862C12.8057 20.6698 12.7384 20.5665 12.6433 20.4937C12.5482 20.4209 12.4309 20.383 12.3112 20.3864Z" fill="#FAFAFA"/>
        <path d="M22.1758 20.8471L23.881 20.1743C23.9161 20.1604 23.9462 20.1363 23.9674 20.105C23.9886 20.0738 24 20.0369 24 19.9991C24 19.9613 23.9886 19.9243 23.9674 19.8931C23.9462 19.8618 23.9161 19.8377 23.881 19.8238L22.1758 19.151C21.8739 19.0315 21.5997 18.8513 21.3702 18.6214C21.1407 18.3916 20.9607 18.1171 20.8413 17.8148L20.1694 16.1187C20.1554 16.0837 20.1313 16.0536 20.1001 16.0324C20.0689 16.0113 20.032 16 19.9944 16C19.9567 16 19.9198 16.0113 19.8886 16.0324C19.8574 16.0536 19.8333 16.0837 19.8193 16.1187L19.1474 17.8148C19.0283 18.1173 18.8484 18.3919 18.6189 18.6218C18.3893 18.8517 18.115 19.0318 17.813 19.151L16.119 19.8238C16.0839 19.8377 16.0538 19.8618 16.0326 19.8931C16.0114 19.9243 16 19.9613 16 19.9991C16 20.0369 16.0114 20.0738 16.0326 20.105C16.0538 20.1363 16.0839 20.1604 16.119 20.1743L17.813 20.8471C18.115 20.9663 18.3893 21.1465 18.6189 21.3763C18.8484 21.6062 19.0283 21.8809 19.1474 22.1833L19.8193 23.8794C19.833 23.9148 19.857 23.9453 19.8882 23.9668C19.9194 23.9883 19.9564 23.9999 19.9944 24C20.0323 23.9999 20.0693 23.9883 20.1005 23.9668C20.1317 23.9453 20.1557 23.9148 20.1694 23.8794L20.8413 22.1833C20.9607 21.881 21.1407 21.6065 21.3702 21.3767C21.5997 21.1469 21.8739 20.9666 22.1758 20.8471Z" fill="#FAFAFA"/>
      </symbol>

      <symbol id="icon-character" viewBox="0 0 24 24">
        <path fill-rule="evenodd" clip-rule="evenodd" d="M6.32031 6.27693C6.32031 3.14353 8.86425 0.599609 11.9976 0.599609C15.131 0.599609 17.675 3.14353 17.675 6.27693C17.675 9.41034 15.131 11.9565 11.9976 11.9565C8.86425 11.9565 6.32031 9.41034 6.32031 6.27693Z" fill="#FAFAFA"/>
        <path fill-rule="evenodd" clip-rule="evenodd" d="M21.8057 20.9476C21.8057 21.5981 21.5476 22.2202 21.0881 22.6822C20.6286 23.1417 20.0039 23.3999 19.3534 23.3999H4.63978C3.98927 23.3999 3.36459 23.1417 2.90512 22.6822C2.44563 22.2202 2.1875 21.5981 2.1875 20.9476C2.1875 16.4328 5.84784 12.7725 10.3626 12.7725H13.6306C18.1454 12.7725 21.8057 16.4328 21.8057 20.9476Z" fill="#FAFAFA"/>
      </symbol>

      <symbol id="icon-wand" viewBox="0 0 24 24" fill="none" xmlns="http://www.w3.org/2000/svg">
        <path fill="currentColor" d="m6.048 4.838 2.081 1.139c.267.145.366.478.22.745a.75.75 0 0 1-.22.22l-2.081 1.134a.75.75 0 0 0-.22.22l-1.139 2.081a.75.75 0 0 1-1.028.22.75.75 0 0 1-.22-.22l-1.134-2.081a.75.75 0 0 0-.22-.22L.287 6.942a.75.75 0 0 1 .22-1.028.75.75 0 0 1 .22-.22l2.081-1.134a.75.75 0 0 0 .22-.22l1.139-2.081a.75.75 0 0 1 1.028-.22.75.75 0 0 1 .22.22l1.134 2.081a.75.75 0 0 0 .22.22Z"/>
        <path fill="currentColor" d="m21.541 15.946 2.081 1.139c.267.145.366.478.22.745a.75.75 0 0 1-.22.22l-2.081 1.134a.75.75 0 0 0-.22.22l-1.139 2.081a.75.75 0 0 1-1.028.22.75.75 0 0 1-.22-.22l-1.134-2.081a.75.75 0 0 0-.22-.22l-2.081-1.134a.75.75 0 0 1 .22-1.028.75.75 0 0 1 .22-.22l2.081-1.134a.75.75 0 0 0 .22-.22l1.139-2.081a.75.75 0 0 1 1.028-.22.75.75 0 0 1 .22.22l1.134 2.081a.75.75 0 0 0 .22.22Z"/>
        <path fill="currentColor" d="m12.533 2.456 1.364.745c.174.099.239.319.145.493a.75.75 0 0 1-.145.145l-1.364.745a.75.75 0 0 0-.145.145l-.745 1.364a.75.75 0 0 1-1.028.145.75.75 0 0 1-.145-.145l-.745-1.364a.75.75 0 0 0-.145-.145l-1.364-.745a.75.75 0 0 1 .145-1.028.75.75 0 0 1 .145-.145l1.364-.745a.75.75 0 0 0 .145-.145l.745-1.364a.75.75 0 0 1 1.028-.145.75.75 0 0 1 .145.145l.745 1.364a.75.75 0 0 0 .145.145Z"/>
        <path fill="currentColor" d="m23.464 3.08-1.926-1.927A1.5 1.5 0 0 0 18.95 1.148L1.77 18.333a1.5 1.5 0 0 0 0 2.121l1.927 1.927a1.5 1.5 0 0 0 2.121 0L23.464 5.202a1.5 1.5 0 0 0 0-2.121ZM16.766 9.576l-1.725-1.725 5.086-5.091 1.725 1.725-5.086 5.091Z"/>
      </symbol>
      
      <symbol id="icon-lightning" viewBox="0 0 24 24">
        <path d="M17.9345 10.25H14.1561L17.3749 3.00781C17.4596 2.81747 17.4953 2.60898 17.4789 2.40131C17.4625 2.19363 17.3944 1.99335 17.2809 1.81869C17.1673 1.64402 17.0119 1.5005 16.8288 1.40118C16.6457 1.30186 16.4406 1.24989 16.2323 1.25H9.3622C9.09986 1.24979 8.84413 1.33223 8.63131 1.48562C8.41849 1.63901 8.25941 1.85555 8.17665 2.10449L4.50965 13.1045C4.4469 13.2924 4.42973 13.4926 4.45956 13.6884C4.48939 13.8843 4.56536 14.0703 4.68122 14.231C4.79707 14.3918 4.94947 14.5226 5.12586 14.6129C5.30225 14.7031 5.49757 14.7501 5.6957 14.75H10.0668L8.71718 20.8252C8.65275 21.0988 8.68388 21.3863 8.8054 21.6398C8.92691 21.8933 9.1315 22.0976 9.38518 22.2188C9.55934 22.3049 9.75093 22.35 9.94524 22.3506C10.1275 22.35 10.3074 22.309 10.4721 22.2307C10.6367 22.1523 10.7819 22.0385 10.8974 21.8975L18.8949 12.2998C19.0469 12.1173 19.1437 11.8952 19.1741 11.6596C19.2044 11.4241 19.167 11.1847 19.0662 10.9696C18.9654 10.7546 18.8055 10.5726 18.605 10.4452C18.4046 10.3177 18.172 10.25 17.9345 10.25Z" fill="#FAFAFA"/>
      </symbol>

      <symbol id="icon-heart" viewBox="0 0 24 24">
        <path fill-rule="evenodd" clip-rule="evenodd" d="M12.0014 22L7.82494 17.6124L3.68131 13.2248C1.43956 10.7998 1.43956 7.00458 3.68131 4.57967C4.779 3.49982 6.26577 2.93552 7.78589 3.02178C9.30601 3.10804 10.7227 3.8371 11.6971 5.03452L12.0014 5.34019L12.3029 5.02136C13.2773 3.82393 14.694 3.09488 16.2141 3.00862C17.7342 2.92236 19.221 3.48666 20.3187 4.56651C22.5604 6.99141 22.5604 10.7867 20.3187 13.2116L16.1751 17.5992L12.0014 22Z" fill="currentColor" stroke="#E02C7D" stroke-width="2" stroke-linecap="round" stroke-linejoin="round"/>
      </symbol>

      <symbol id="icon-Girlfriend" viewBox="0 0 24 24">
        <path d="M11.9998 0C7.79116 0 4.36719 3.51652 4.36719 7.78125C4.36719 12.1161 5.76848 15.053 5.82811 15.1739C5.94602 15.4121 6.18587 15.5625 6.4488 15.5625H8.36721C7.20156 14.5306 6.4488 12.9848 6.4488 11.2969V10.5656C6.4488 9.46144 7.30055 8.53655 8.38812 8.46103C10.1594 8.34019 12.3216 7.81969 13.0873 6.72178C14.0555 5.33123 16.1872 5.61061 16.7525 7.24088C17.1808 8.48438 17.5507 9.55692 17.5507 11.13C17.5507 12.9112 16.8013 14.5082 15.6257 15.5625H17.5507C17.8137 15.5625 18.0535 15.4121 18.1714 15.1739C18.231 15.053 19.6323 12.1161 19.6323 7.78125C19.6323 3.51652 16.2084 0 11.9998 0Z" fill="currentColor"/>
        <path d="M4 19.3581C9.27091 20.2172 14.7244 20.2123 20 19.3534C19.3485 19.0953 18.6596 18.9279 18.0107 18.7732C16.6932 18.4593 15.1937 18.1498 14.3421 17C13.6159 17.2191 12.8359 17.3545 12.006 17.3545C11.1904 17.3545 10.4176 17.2205 9.69526 17.0046C8.85508 18.1403 7.33723 18.4553 6.00051 18.7738C5.34805 18.9292 4.65484 19.0973 4 19.3581Z" fill="currentColor"/>
        <path d="M3.6965 24L20.3035 23.9999C20.6956 23.9999 21.0232 23.6483 20.9987 23.229C20.9121 21.7435 20.5705 20.7363 20.089 20.0281C17.4371 20.7062 14.7214 21.0462 12.0061 21.0462C9.29076 21.0462 6.58212 20.6754 3.93292 20C3.44032 20.7098 3.08922 21.7221 3.00129 23.229C2.97682 23.6483 3.30442 24 3.6965 24Z" fill="currentColor"/>
        <path d="M16.1623 11.1298C16.1623 9.79564 15.8445 8.87347 15.4421 7.70618C15.259 7.17758 14.5524 7.05603 14.2203 7.53247C12.9396 9.36992 9.78132 9.77506 8.48304 9.86361C8.11848 9.88901 7.83594 10.1952 7.83594 10.5654V11.2967C7.83594 13.623 9.70342 15.5623 11.9992 15.5623C14.4523 15.5623 16.1623 13.4528 16.1623 11.1298Z" fill="currentColor"/>
      </symbol>

      <symbol id="icon-anime" viewBox="0 0 24 24">
        <path id="Vector" d="M11 21C0.815574 20.129 0 9.00404 0 9.00404C2.38936 8.94195 4.7385 9.59645 6.71311 10.8744C6.70082 10.9327 6.69262 10.9911 6.68033 11.0494C6.04508 14.6462 8.04098 17.792 9.83197 19.7946C10.1475 20.1445 10.5738 20.6073 11 21Z" fill="currentColor" fill-rule="nonzero" />
        <path id="Vector" d="M24 9.00397C24 9.00397 23.2588 20.1329 14 21C15.4749 19.5068 18.6741 15.6572 17.933 11.0493C17.9218 10.9871 17.9143 10.9288 17.8994 10.8704C19.6951 9.59553 21.8293 8.94256 24 9.00397Z" fill="currentColor" fill-rule="nonzero" />
        <path id="Vector" d="M12.4999 21C12.4999 21 17.7812 16.713 16.9011 11.475C16.3262 8.26941 14.7907 5.31396 12.498 3C10.2076 5.31509 8.67375 8.27022 8.09906 11.475C7.21852 16.713 12.498 21 12.4999 21Z" fill="currentColor" fill-rule="nonzero" />
      </symbol>

      <symbol id="icon-Boyfriend" viewBox="0 0 24 24">
        <path id="Vector" d="M6.27344 8.27248C6.44996 10.591 7.37205 9.59175 7.56221 10.6074C7.87847 12.296 9.37358 13.5177 10.3043 13.9394C10.8466 14.1852 11.4049 14.3092 11.992 14.3193C11.992 14.3193 11.9921 14.3193 11.9921 14.3193C12.5791 14.3092 13.1375 14.1852 13.6798 13.9394C14.6104 13.5178 16.1056 12.296 16.4218 10.6074C16.612 9.59181 17.5341 10.591 17.7106 8.27248C17.7106 7.34847 17.2073 7.11871 17.2073 7.11871C17.2073 7.11871 17.463 5.75124 17.5634 4.69901C17.6876 3.38744 16.7978 0 12.0522 0C12.0314 0 12.0121 0.00101839 11.992 0.00118812C11.9719 0.000961812 11.9526 0 11.9319 0C7.18625 0 6.29646 3.38744 6.42071 4.69901C6.52096 5.75124 6.7768 7.11871 6.7768 7.11871C6.7768 7.11871 6.27344 7.34847 6.27344 8.27248Z" fill="currentColor" fill-rule="nonzero" />
				<path id="Vector" d="M18.6752 15.8336C17.7473 15.4989 16.1318 14.5343 15.855 14.3853C15.7833 14.3438 15.7003 14.3193 15.6113 14.3193C15.4172 14.3193 15.25 14.4334 15.1721 14.5981C14.407 15.8791 12.9884 18.8759 11.9986 18.9449C11.0087 18.8759 9.59022 15.8792 8.82504 14.5981C8.7472 14.4334 8.58007 14.3193 8.38588 14.3193C8.2969 14.3193 8.2138 14.3438 8.14208 14.3853C7.8654 14.5342 6.24988 15.4989 5.32196 15.8336C2.20691 16.9568 1.77294 16.9876 0.805918 18.8833C-0.102124 20.6634 0.805918 24.0004 0.805918 24.0004L11.9986 24.0004L23.1913 24.0004C23.1913 24.0004 24.0993 20.6634 23.1913 18.8833C22.2242 16.9876 21.7902 16.9568 18.6752 15.8336Z" fill="currentColor" fill-rule="nonzero" />
      </symbol>

      <symbol id="icon-camera" viewBox="0 0 24 24">
        <path d="M23 6.94492V17.0551C22.9999 17.2166 22.9558 17.3748 22.8727 17.5115C22.7896 17.6481 22.671 17.7577 22.5305 17.8275C22.39 17.8974 22.2333 17.9246 22.0785 17.9062C21.9236 17.8878 21.777 17.8244 21.6554 17.7234L19.2781 15.7458C19.2397 15.7137 19.2087 15.6732 19.1874 15.6271C19.1661 15.581 19.1551 15.5305 19.1551 15.4794V8.52064C19.1551 8.46953 19.1661 8.41905 19.1874 8.37294C19.2087 8.32683 19.2397 8.28626 19.2781 8.25423L21.6554 6.2766C21.777 6.17557 21.9236 6.1122 22.0785 6.09377C22.2333 6.07535 22.39 6.10264 22.5305 6.17248C22.671 6.24232 22.7896 6.35188 22.8727 6.48854C22.9558 6.6252 22.9999 6.7834 23 6.94492ZM17.5073 16.5541V7.44587C17.5712 6.98191 17.53 6.50892 17.3869 6.06432C17.2439 5.61973 17.003 5.21575 16.6832 4.88436C16.3635 4.55297 15.9737 4.30327 15.5447 4.15503C15.1157 4.00679 14.6593 3.96408 14.2117 4.03027H4.32483C3.87717 3.96408 3.42079 4.00679 2.99181 4.15503C2.56283 4.30327 2.17304 4.55297 1.85329 4.88436C1.53355 5.21575 1.29262 5.61973 1.14958 6.06432C1.00655 6.50892 0.965337 6.98191 1.02921 7.44587V16.5541C0.965337 17.0181 1.00655 17.4911 1.14958 17.9357C1.29262 18.3803 1.53355 18.7843 1.85329 19.1156C2.17304 19.447 2.56283 19.6967 2.99181 19.845C3.42079 19.9932 3.87717 20.0359 4.32483 19.9697H14.2117C14.6593 20.0359 15.1157 19.9932 15.5447 19.845C15.9737 19.6967 16.3635 19.447 16.6832 19.1156C17.003 18.7843 17.2439 18.3803 17.3869 17.9357C17.53 17.4911 17.5712 17.0181 17.5073 16.5541Z" fill="#FAFAFA"/>
      </symbol>

      <symbol id="icon-photo" viewBox="0 0 24 24">
        <path d="M20.5129 1.68921H3.48814C2.11583 1.68921 0.999878 2.80479 0.999878 4.17873V19.8255C0.999878 21.1979 2.11583 22.3123 3.48814 22.3123H20.5129C21.8852 22.3123 23 21.1979 23 19.8255V4.17873C23 2.80479 21.8853 1.68921 20.5129 1.68921ZM15.2263 5.3916C16.5534 5.3916 17.6296 6.46793 17.6296 7.79495C17.6296 9.12197 16.5533 10.1983 15.2263 10.1983C13.8988 10.1983 12.8229 9.12197 12.8229 7.79495C12.8229 6.46793 13.8988 5.3916 15.2263 5.3916ZM19.7326 20.0122H11.9997H4.61139C3.94762 20.0122 3.652 19.5319 3.95123 18.9394L8.07582 10.7699C8.37468 10.1775 8.94425 10.1247 9.34761 10.6517L13.495 16.0718C13.8984 16.5989 14.6034 16.6438 15.07 16.1715L16.0846 15.144C16.5509 14.6718 17.2379 14.7302 17.6184 15.2738L20.2457 19.0267C20.6255 19.5711 20.3964 20.0122 19.7326 20.0122Z" fill="#FAFAFA"/>
      </symbol>

      <symbol id="icon-closed" viewBox="0 0 24 24">
        <path d="M7.96588 7.93013C8.31258 7.93045 8.6586 7.96098 9 8.02137V5C9 4.20435 9.31607 3.44129 9.87868 2.87868C10.4413 2.31607 11.2044 2 12 2C12.7956 2 13.5587 2.31607 14.1213 2.87868C14.6839 3.44129 15 4.20435 15 5V8.0215C15.3414 7.961 15.6874 7.93043 16.0341 7.93013C16.3578 7.93061 16.6809 7.95838 17 8.01313V5C17 3.67392 16.4732 2.40215 15.5355 1.46447C14.5979 0.526784 13.3261 0 12 0C10.6739 0 9.40215 0.526784 8.46447 1.46447C7.52678 2.40215 7 3.67392 7 5V8.01313C7.31906 7.95838 7.64216 7.93061 7.96588 7.93013Z" fill="#FAFAFA"/>
        <path d="M17.8084 9.27113C15.925 8.52451 13.8491 9.01563 12 10.6141C10.1511 9.01576 8.075 8.52451 6.19163 9.27113C5.25022 9.65323 4.44392 10.307 3.8755 11.1491C3.30708 11.9912 3.0023 12.9835 3 13.9995C3 20.5011 11.2851 23.7946 11.6375 23.9316C11.8704 24.0221 12.1288 24.0221 12.3617 23.9316C12.7145 23.7941 20.9993 20.5011 20.9993 13.9995C20.997 12.9836 20.6923 11.9914 20.1241 11.1493C19.5558 10.3072 18.7496 9.65335 17.8084 9.27113ZM13 16.7298V18.9995H11V16.7298C10.6187 16.5096 10.3207 16.1698 10.1522 15.7631C9.98376 15.3563 9.9542 14.9053 10.0681 14.4801C10.1821 14.0548 10.4332 13.679 10.7825 13.411C11.1318 13.143 11.5597 12.9977 12 12.9977C12.4403 12.9977 12.8682 13.143 13.2175 13.411C13.5668 13.679 13.8179 14.0548 13.9319 14.4801C14.0458 14.9053 14.0162 15.3563 13.8478 15.7631C13.6793 16.1698 13.3813 16.5096 13 16.7298Z" fill="#FAFAFA"/>
      </symbol>  

    </defs>
  </svg>