<svg viewBox="0 0 36 30" fill="none" xmlns="http://www.w3.org/2000/svg">
<path d="M22.363 23.0311C22.3875 21.9056 22.1395 20.7163 22.1395 20.7157L21.7285 21.0562C21.5417 21.2116 21.3421 21.3565 21.1333 21.4797C15.2888 24.9348 12.1703 22.0337 12.1679 22.0319C19.8778 23.8316 23.3858 16.6662 23.8096 15.8168C24.4833 14.4678 24.9046 13.0302 24.9836 11.5283C25.1178 8.96338 24.4318 6.64237 22.7764 4.63959C20.1136 1.41843 16.6919 -0.0704931 12.5702 0.00256035C12.2285 0.00875133 11.8874 0.0285558 11.5456 0.0421759C7.7216 0.397538 4.88605 2.37865 2.75539 5.50509C0.0864137 9.4215 -2.16979 16.4873 3.65383 22.6708C5.93881 25.0977 8.70088 26.7835 11.7373 28.057C13.8423 28.9398 16.0274 29.5341 18.2634 29.9489C18.4465 29.9829 18.6351 30.0028 18.8207 29.9997C19.2935 29.9916 19.6634 29.8399 19.9501 29.3979C21.0714 27.6675 22.0366 25.866 22.3104 23.7895C22.3434 23.5388 22.3563 23.2856 22.3624 23.0305L22.363 23.0311Z" fill="url(#paint0_linear_4242_400)"/>
<mask id="mask0_4242_400" style="mask-type:luminance" maskUnits="userSpaceOnUse" x="0" y="0" width="25" height="30">
<path d="M22.363 23.0311C22.3875 21.9056 22.1395 20.7163 22.1395 20.7157L21.7285 21.0562C21.5417 21.2116 21.3421 21.3565 21.1333 21.4797C15.2888 24.9348 12.1703 22.0337 12.1679 22.0319C19.8778 23.8316 23.3858 16.6662 23.8096 15.8168C24.4833 14.4678 24.9046 13.0302 24.9836 11.5283C25.1178 8.96338 24.4318 6.64237 22.7764 4.63959C20.1136 1.41843 16.6919 -0.0704931 12.5702 0.00256035C12.2285 0.00875133 11.8874 0.0285558 11.5456 0.0421759C7.7216 0.397538 4.88605 2.37865 2.75539 5.50509C0.0864137 9.4215 -2.16979 16.4873 3.65383 22.6708C5.93881 25.0977 8.70088 26.7835 11.7373 28.057C13.8423 28.9398 16.0274 29.5341 18.2634 29.9489C18.4465 29.9829 18.6351 30.0028 18.8207 29.9997C19.2935 29.9916 19.6634 29.8399 19.9501 29.3979C21.0714 27.6675 22.0366 25.866 22.3104 23.7895C22.3434 23.5388 22.3563 23.2856 22.3624 23.0305L22.363 23.0311Z" fill="white"/>
</mask>
<g mask="url(#mask0_4242_400)">
<path d="M17.5703 21.9859C23.013 21.048 26.5933 15.4336 25.5673 9.44578C24.5413 3.45791 19.2974 -0.635942 13.8548 0.301895C8.41213 1.23973 4.83176 6.85412 5.85779 12.842C6.88381 18.8298 12.1277 22.9237 17.5703 21.9859Z" fill="url(#paint1_linear_4242_400)"/>
<path d="M13.1807 -4.92158C9.81375 -4.04577 6.44316 -2.42469 4.06522 0.211487C1.35496 3.21561 0.2583 7.20674 0.0349066 11.1997C-0.17741 15.0016 0.587539 18.7803 2.0916 22.253C3.55812 25.6381 5.92129 28.5004 8.79956 30.7387C11.9437 33.1837 15.7088 34.6049 19.6388 34.9922C20.8714 35.1134 22.0518 33.804 21.9982 32.5971C21.9367 31.1953 20.9588 30.332 19.6388 30.2021C19.4628 30.1846 19.2695 30.1827 19.0966 30.1427C19.7139 30.2852 19.1249 30.1428 19.0049 30.1228C18.6467 30.0622 18.291 29.9903 17.9372 29.9079C17.171 29.7286 16.4171 29.4987 15.6798 29.2207C15.5094 29.1564 15.3414 29.0876 15.1721 29.0208C14.5998 28.7947 15.622 29.2419 15.0681 28.9727C14.7401 28.8134 14.4102 28.6604 14.0878 28.4898C13.4428 28.1487 12.817 27.7708 12.2132 27.3585C11.916 27.1549 11.596 26.9537 11.3252 26.7145C11.7677 27.1055 11.3074 26.6951 11.231 26.632C11.0901 26.5152 10.951 26.3959 10.8138 26.2753C10.2181 25.7512 9.65314 25.1909 9.12512 24.5968C8.8808 24.3225 8.65064 24.0377 8.4174 23.7535C8.02538 23.2756 8.69679 24.1607 8.3417 23.6535C8.27154 23.5529 8.1983 23.4548 8.12814 23.3549C7.63889 22.6571 7.19642 21.9256 6.80133 21.1691C6.61917 20.8199 6.44685 20.4657 6.28561 20.1065C6.25053 20.029 5.99945 19.4194 6.21361 19.9541C6.14038 19.7711 6.06838 19.5874 5.99945 19.4025C5.70036 18.601 5.45051 17.7814 5.24927 16.9487C5.08003 16.2478 4.9231 15.5294 4.84432 14.8117C4.9114 15.4239 4.84433 14.7579 4.83387 14.6624C4.81356 14.4656 4.79632 14.2682 4.78155 14.0708C4.74709 13.6098 4.72678 13.1481 4.72124 12.6858C4.71201 11.8937 4.74462 11.101 4.82155 10.3127C4.84062 10.1171 4.85478 9.91661 4.88678 9.72233C4.78586 10.3295 4.89971 9.67113 4.91509 9.57556C4.98155 9.16889 5.0591 8.76345 5.15018 8.36178C5.33296 7.55843 5.56928 6.76758 5.8739 6.00358C5.66897 6.51708 5.93236 5.89176 5.96375 5.82492C6.05175 5.64001 6.14407 5.4576 6.2413 5.27769C6.46039 4.87289 6.71086 4.49434 6.96625 4.11328C7.30719 3.60541 6.64132 4.4731 7.04318 4.0152C7.20442 3.83217 7.35766 3.64351 7.52382 3.46485C7.77244 3.19748 8.03399 2.94198 8.30539 2.69898C8.44139 2.57717 8.58232 2.46098 8.72079 2.34229C8.92572 2.17674 8.90972 2.18862 8.67402 2.37727C8.77125 2.30356 8.86972 2.2311 8.9688 2.16051C9.31774 1.91063 9.67714 1.67763 10.0458 1.45899C10.4144 1.24035 10.7959 1.03544 11.1824 0.845538C11.3486 0.763704 11.5172 0.688115 11.6846 0.608779C11.9277 0.501333 11.9098 0.508209 11.6304 0.628774C11.7443 0.581297 11.8588 0.535072 11.9738 0.48947C12.777 0.173378 13.5991 -0.0846276 14.433 -0.301394C15.6288 -0.612488 16.4688 -2.0324 16.0811 -3.24804C15.6817 -4.50116 14.4601 -5.25454 13.1782 -4.92095L13.1807 -4.92158Z" fill="url(#paint2_linear_4242_400)"/>
<path d="M1.00025 5C1.25668 5 1.52562 4.83263 1.707 4.56047C1.80447 4.42439 1.87326 4.26408 1.91339 4.07795C1.97594 3.89964 2.00461 3.70647 1.9994 3.50001C1.98793 3.11211 1.90297 2.71012 1.70648 2.43953C1.50999 2.16893 1.27076 2 0.999733 2C0.743304 2 0.474375 2.16737 0.292999 2.43953C0.195535 2.57561 0.126739 2.73592 0.0866065 2.92205C0.0240628 3.10036 -0.00461072 3.29355 0.000601253 3.50001C0.0120676 3.88791 0.0970289 4.28988 0.29352 4.56047C0.490012 4.83107 0.729232 5 1.00025 5Z" fill="#E02C7D"/>
<path d="M9.03028 -3.91562C6.29415 -3.15545 3.91932 -1.32277 2.07452 0.814843C0.227896 2.95369 -1.16789 5.41656 -2.04643 8.11475C-3.86929 13.7138 -3.02609 20.0718 0.0329375 25.0647C1.69009 27.7697 3.86997 30.105 6.10895 32.3203C6.98321 33.1852 8.55263 33.2671 9.41289 32.3203C10.2616 31.3857 10.3463 29.903 9.41289 28.9795C8.52643 28.1023 7.65034 27.2134 6.81568 26.2857C6.40992 25.8347 6.0139 25.3752 5.6319 24.9045C5.52589 24.7739 5.42233 24.6415 5.31693 24.5103C5.26088 24.4407 5.05434 24.1524 5.31388 24.5084C5.11587 24.2374 4.91605 23.9682 4.72596 23.6916C4.01132 22.6548 3.43132 21.5663 2.88604 20.4328C2.72825 20.1051 3.00728 20.7642 2.88116 20.4236C2.82085 20.2615 2.75505 20.102 2.69595 19.9394C2.60091 19.6794 2.51196 19.4176 2.42911 19.1539C2.22196 18.4942 2.05198 17.8221 1.92099 17.1426C1.86859 16.8709 1.82412 16.5974 1.78147 16.3239C1.86616 16.8722 1.7437 15.9303 1.73395 15.8169C1.67851 15.1615 1.6584 14.5029 1.67363 13.8456C1.68094 13.5339 1.69678 13.2228 1.71994 12.9124C1.73273 12.7399 1.75284 12.568 1.76624 12.3955C1.77355 12.2988 1.82412 11.9298 1.75833 12.4047C1.84423 11.7844 1.96485 11.1684 2.11717 10.561C2.25607 10.0065 2.42119 9.45891 2.61249 8.9205C2.70814 8.6513 2.80989 8.38456 2.91711 8.11967C2.88543 8.19729 2.72153 8.5589 2.90553 8.15849C2.98534 7.98538 3.06333 7.81229 3.14619 7.64041C3.64455 6.60857 4.24526 5.64201 4.91421 4.71551C4.62299 5.11839 4.87523 4.76604 4.95443 4.66686C5.07323 4.51839 5.19386 4.37239 5.31693 4.22762C5.52224 3.98676 5.73365 3.75205 5.95176 3.52289C6.41478 3.03561 6.90706 2.58283 7.41883 2.14792C7.75269 1.86393 7.47488 2.1011 7.4042 2.15347C7.56017 2.03704 7.71675 1.92122 7.87698 1.81034C8.14322 1.62614 8.41677 1.45243 8.69824 1.29226C8.9785 1.1321 9.26544 0.986091 9.5591 0.853646C9.10582 1.05693 9.50793 0.883217 9.62734 0.840712C9.83997 0.76494 10.055 0.700257 10.2725 0.639886C11.4502 0.312777 12.2928 -1.05233 11.9041 -2.2659C11.5142 -3.4844 10.2926 -4.26676 9.03028 -3.91562Z" fill="#F980C2"/>
<path d="M10.6664 4.60639C10.6764 5.88459 10.898 7.13072 11.2002 8.36617C11.2814 8.69751 11.3488 9.03449 11.3925 9.37274C11.488 10.1109 11.1322 10.6893 10.4473 10.9446C9.8248 11.1772 8.93324 10.644 8.80275 9.97507C8.63855 9.13446 8.89953 8.33222 9.00816 7.51802C9.14115 6.524 9.19109 5.52936 9.12616 4.53158C9.07121 3.68657 8.75468 3.35962 8.07353 3.37597C7.65273 3.38603 7.34118 3.58471 7.15762 3.96321C7.03338 4.2191 6.94848 4.49385 6.82361 4.74911C6.63319 5.13829 6.3591 5.21751 5.98762 5.01254C5.043 4.49196 4.70336 4.6592 4.39806 5.71797C4.18454 6.45861 4.25759 7.17285 4.4324 7.8984C4.576 8.49317 4.7658 9.08164 4.76018 9.70282C4.75643 10.1536 4.50358 10.5082 4.16519 10.5812C3.57519 10.7082 3.11755 10.3586 3.09944 9.74811C3.08196 9.15648 3.288 8.59691 3.37478 8.02037C3.45657 7.47715 3.55022 6.88992 3.19872 6.44793C2.82911 5.98267 3.03515 5.72363 3.32983 5.386C4.84634 3.64946 6.56701 2.16066 8.52743 0.95036C9.10556 0.593244 9.71802 0.427885 10.3892 0.380102C11.7808 0.280134 13.17 0.145589 14.5598 0.0204727C14.6721 0.0104131 14.7864 -0.0449147 14.8626 0.0833452C14.9306 0.197773 14.8763 0.300245 14.8195 0.402727C14.3325 1.28106 14.4636 2.18014 14.7252 3.08677C14.8201 3.41433 14.9162 3.74316 14.9774 4.07827C15.0124 4.27003 15.0043 4.47939 14.9699 4.67304C14.8688 5.24895 14.4143 5.67522 13.956 5.65258C13.4547 5.62806 13.0033 5.13075 12.9546 4.54855C12.9271 4.21659 13.0108 3.89656 13.0651 3.57403C13.1313 3.17919 13.165 2.78435 12.7985 2.52154C12.4183 2.24868 11.9844 2.30085 11.581 2.46306C11.0173 2.6894 10.6545 3.33762 10.6664 4.01036C10.6701 4.20967 10.6664 4.40897 10.6664 4.60828V4.60639Z" fill="url(#paint3_linear_4242_400)"/>
<path d="M24.6664 -2.39362C24.6764 -1.11542 24.898 0.130714 25.2002 1.36616C25.2814 1.6975 25.3488 2.03449 25.3925 2.37275C25.488 3.11087 25.1322 3.68929 24.4473 3.94456C23.8248 4.17718 22.9332 3.64402 22.8028 2.97505C22.6386 2.13445 22.8995 1.33221 23.0082 0.518009C23.1411 -0.476004 23.1911 -1.47065 23.1262 -2.46843C23.0712 -3.31344 22.7547 -3.64038 22.0735 -3.62403C21.6527 -3.61397 21.3412 -3.41529 21.1576 -3.0368C21.0334 -2.78091 20.9485 -2.50616 20.8236 -2.25089C20.6332 -1.86171 20.3591 -1.7825 19.9876 -1.98746C19.043 -2.50805 18.7034 -2.34081 18.3981 -1.28204C18.1845 -0.541399 18.2576 0.172827 18.4324 0.898375C18.576 1.49315 18.7658 2.08165 18.7602 2.70283C18.7564 3.15362 18.5036 3.50822 18.1652 3.58115C17.5752 3.70815 17.1175 3.35858 17.0994 2.74809C17.082 2.15646 17.288 1.5969 17.3748 1.02036C17.4566 0.477141 17.5502 -0.110087 17.1987 -0.552081C16.8291 -1.01734 17.0351 -1.27638 17.3298 -1.614C18.8463 -3.35054 20.567 -4.83936 22.5274 -6.04966C23.1056 -6.40677 23.718 -6.57212 24.3892 -6.6199C25.7808 -6.71987 27.17 -6.85441 28.5598 -6.97953C28.6721 -6.98959 28.7864 -7.04491 28.8626 -6.91665C28.9306 -6.80223 28.8763 -6.69976 28.8195 -6.59727C28.3325 -5.71895 28.4636 -4.81986 28.7252 -3.91324C28.8201 -3.58567 28.9162 -3.25686 28.9774 -2.92175C29.0124 -2.72999 29.0043 -2.52062 28.9699 -2.32697C28.8688 -1.75106 28.4143 -1.32479 27.956 -1.34743C27.4547 -1.37195 27.0033 -1.86926 26.9546 -2.45145C26.9271 -2.78342 27.0108 -3.10344 27.0651 -3.42598C27.1313 -3.82082 27.165 -4.21567 26.7985 -4.47848C26.4183 -4.75134 25.9844 -4.69915 25.581 -4.53694C25.0173 -4.3106 24.6545 -3.66238 24.6664 -2.98965C24.6701 -2.79034 24.6664 -2.59103 24.6664 -2.39173V-2.39362Z" fill="url(#paint4_linear_4242_400)"/>
<path d="M22.507 0.939594C21.975 0.332888 21.4119 -0.24588 20.8294 -0.80477C20.6453 -0.981131 20.4586 -1.15501 20.2738 -1.33012C20.1533 -1.44439 19.7837 -1.87412 20.139 -1.41272C19.7463 -1.92193 19.1088 -2.1933 18.5014 -1.83995C17.9976 -1.54685 17.6761 -0.724659 18.0719 -0.211101C18.6519 0.540917 19.4329 1.14451 20.0884 1.83133C21.3383 3.14099 22.1879 4.20289 23.0932 5.82491C24.0303 7.50407 24.6396 9.37324 24.6277 11.3014C24.6134 13.6413 23.6095 15.9421 22.0999 17.8417C19.9292 20.5728 16.95 22.6022 13.3184 22.2985C13.2079 22.2892 13.1024 22.3066 13 22.3339C13.0044 22.3352 13.0087 22.3345 13.0131 22.3358C14.8529 22.8145 16.5598 23.3002 18.4477 22.768C20.0865 22.306 21.6242 21.4161 22.9103 20.3132C23.0245 20.2151 23.1475 20.1642 23.2699 20.143C25.0479 18.1341 26.4607 15.7316 26.8671 13.0619C27.5614 8.50635 25.4506 4.29356 22.507 0.938972V0.939594Z" fill="#FC81C5"/>
</g>
<path d="M22 1.44777C26.845 4.93372 29.3388 11.6763 25.4584 18.5278C25.1831 19.0144 24.8739 19.501 24.5338 19.9876C25.0037 20.4488 25.9998 21.1014 27.8624 21.0507C27.8624 21.0507 26.6419 22.4547 24.3088 21.984C24.4016 22.5295 24.444 23.0674 24.444 23.5983C24.4428 25.8139 23.691 27.9162 22.7148 30C23.1017 29.8315 23.4939 29.6762 23.8747 29.4931C26.8317 28.072 29.4497 26.1421 31.7137 23.7022C41.411 13.2507 33.1312 -1.79108 22 1.44777Z" fill="url(#paint5_linear_4242_400)"/>
<mask id="mask1_4242_400" style="mask-type:luminance" maskUnits="userSpaceOnUse" x="22" y="1" width="14" height="29">
<path d="M22 1.44777C26.845 4.93372 29.3388 11.6763 25.4584 18.5278C25.1831 19.0144 24.8739 19.501 24.5338 19.9876C25.0037 20.4488 25.9998 21.1014 27.8624 21.0507C27.8624 21.0507 26.6419 22.4547 24.3088 21.984C24.4016 22.5295 24.444 23.0674 24.444 23.5983C24.4428 25.8139 23.691 27.9162 22.7148 30C23.1017 29.8315 23.4939 29.6762 23.8747 29.4931C26.8317 28.072 29.4497 26.1421 31.7137 23.7022C41.411 13.2507 33.1312 -1.79108 22 1.44777Z" fill="white"/>
</mask>
<g mask="url(#mask1_4242_400)">
<path d="M29.8414 21.0067C35.002 20.0604 38.4027 14.4309 37.437 8.43304C36.4712 2.43515 31.5048 -1.6599 26.3442 -0.713538C21.1835 0.232822 17.7829 5.86223 18.7486 11.8601C19.7143 17.858 24.6807 21.9531 29.8414 21.0067Z" fill="url(#paint6_linear_4242_400)"/>
<path d="M22.2408 1.65477C23.4322 1.63247 24.6242 1.69428 25.8056 1.86251C25.6959 1.84658 25.5857 1.83065 25.4761 1.81535C26.7867 2.00588 28.0884 2.30727 29.3114 2.85591L29.0153 2.72211C29.8922 3.11909 30.7197 3.63141 31.4745 4.25333L31.2236 4.04624C31.9647 4.66115 32.6278 5.37481 33.2015 6.16814L33.0078 5.89988C33.6435 6.7837 34.163 7.75544 34.5686 8.78136L34.4435 8.46466C34.9314 9.70787 35.2501 11.0205 35.4199 12.3555L35.3758 12.0031C35.5784 13.6274 35.5605 15.2765 35.3592 16.9001L35.4032 16.5477C35.1626 18.4581 34.6687 20.3245 33.9705 22.1004L34.0956 21.7837C33.3176 23.7521 32.2906 25.5993 31.07 27.2899C31.1343 27.2006 31.1992 27.1108 31.2636 27.0216C29.9119 28.8861 28.3302 30.5549 26.586 31.9982C26.6694 31.9294 26.7534 31.86 26.8368 31.7911C25.5625 32.8406 24.2019 33.7652 22.7674 34.5426C22.1877 34.8568 21.9745 35.7801 22.3224 36.3574C22.7042 36.9908 23.3988 37.1692 24.019 36.8334C25.8943 35.817 27.638 34.5439 29.2429 33.0936C30.7369 31.744 32.0642 30.2229 33.2557 28.5668C34.2606 27.1688 35.134 25.6611 35.8411 24.0681C36.5381 22.498 37.104 20.8559 37.4692 19.1609C37.81 17.58 38.0018 15.9456 38 14.3219C37.9982 12.7907 37.8254 11.241 37.465 9.75821C37.1249 8.35762 36.6018 6.98315 35.903 5.74313C35.2263 4.54198 34.3738 3.42687 33.3742 2.51629C32.2537 1.49547 31.014 0.723169 29.642 0.157961C28.9343 -0.133883 28.2022 -0.342259 27.4593 -0.502837C26.278 -0.75836 25.0716 -0.913194 23.8677 -0.972455C23.3256 -0.999218 22.7835 -1.0056 22.2408 -0.995402C21.5926 -0.983295 20.9707 -0.393869 21.0011 0.330643C21.0315 1.05515 21.5462 1.67007 22.2408 1.65669V1.65477Z" fill="#F995CC"/>
<path d="M24.437 20.6564C24.1365 20.5462 23.9433 20.3021 23.9202 20C23.1671 20.0956 22.543 20.6991 22.5692 21.5607C22.576 21.7863 22.6353 22.0056 22.6695 22.228C22.6633 22.235 22.6864 22.56 22.687 22.5982C22.6889 22.7308 22.6857 22.864 22.6776 22.9965C22.6739 23.0622 22.667 23.1285 22.6608 23.1941C22.6571 23.2138 22.6521 23.2457 22.6427 23.3024C22.5785 23.5803 22.5143 23.8531 22.4152 24.1201C22.3958 24.1488 22.2786 24.4043 22.2612 24.4355C22.2381 24.4776 21.9732 24.881 22.1265 24.6783C21.7144 25.2232 21.5679 26.0211 22.1265 26.545C22.2381 26.6495 22.3771 26.7362 22.5286 26.8018C22.4252 26.9197 22.3291 27.044 22.2213 27.158C21.9669 27.4257 21.7013 27.6825 21.4245 27.926C21.3485 27.9929 21.2718 28.0585 21.1938 28.1229C21.177 28.1369 21.1122 28.1879 21.0779 28.2159C20.9351 28.3243 20.7905 28.4301 20.6433 28.532C20.0853 28.9189 19.7848 29.711 20.1801 30.3381C20.538 30.9059 21.3491 31.2265 21.947 30.8116C24.9882 28.7022 27.0256 25.3749 27.9608 21.7742C28 21.6238 28.0081 21.4639 27.9926 21.3045C26.7743 21.2816 25.5879 21.0789 24.437 20.657V20.6564ZM23.139 22.0087C23.1396 22.0138 23.1403 22.0196 23.1409 22.0247C23.1353 22.0113 23.1353 21.9966 23.1315 21.9826C23.134 21.9909 23.1371 22.0011 23.139 22.0087ZM24.7095 21.2708C24.7039 21.274 24.6989 21.2771 24.6933 21.2803C24.6901 21.281 24.6895 21.281 24.6864 21.2822C24.5748 21.3147 24.4906 21.2867 24.7095 21.2708Z" fill="url(#paint7_linear_4242_400)"/>
</g>
<path d="M20.0109 5.00065C20.815 5.59333 21.465 6.2963 21.9781 7.1418C22.6735 8.28849 23.023 9.55384 22.9988 10.9359C22.9888 11.4989 22.9038 12.0484 22.7597 12.5869C22.6841 12.8694 22.5076 13.0364 22.2366 12.9932C21.9621 12.95 21.8511 12.7359 21.8594 12.436C21.8706 12.0342 21.8913 11.6312 21.8759 11.23C21.795 9.10949 21.2554 7.14696 20.152 5.38437C20.1001 5.30118 20.0505 5.2167 20.0032 5.13028C19.995 5.11544 20.0044 5.089 20.0103 5L20.0109 5.00065Z" fill="#F8F8F9"/>
<path d="M30.0007 5.00068C30.5047 5.24019 30.9205 5.53889 31.3175 5.86617C32.6722 6.98409 33.5516 8.41707 33.891 10.1868C34.036 10.9421 34.0353 11.7103 33.895 12.4723C33.8271 12.8405 33.6658 13.0085 33.3733 12.9997C33.0515 12.9901 32.8876 12.8153 32.8706 12.4186C32.8249 11.351 32.6415 10.312 32.3196 9.29821C31.8489 7.81422 31.1203 6.48467 30.1371 5.30551C30.0927 5.25243 30.0496 5.19732 30.0098 5.14017C29.9993 5.1252 30.0059 5.0973 30 5L30.0007 5.00068Z" fill="#F8F8F9"/>
<path d="M23.1086 13.8416C23.1967 13.5799 23.0558 13.2971 22.7937 13.21C22.5317 13.1229 22.2478 13.2645 22.1596 13.5262C22.0715 13.7879 22.2124 14.0706 22.4745 14.1577C22.7365 14.2448 23.0204 14.1033 23.1086 13.8416Z" fill="#F8F8F9"/>
<path d="M34.0226 13.5473C34.0357 13.2715 33.8227 13.0374 33.5469 13.0245C33.271 13.0116 33.0368 13.2247 33.0237 13.5006C33.0106 13.7764 33.2236 14.0105 33.4994 14.0234C33.7753 14.0363 34.0095 13.8232 34.0226 13.5473Z" fill="#F8F8F9"/>
<defs>
<linearGradient id="paint0_linear_4242_400" x1="25.051" y1="20.5609" x2="1.71118" y2="7.23076" gradientUnits="userSpaceOnUse">
<stop offset="0.08" stop-color="#A854C4"/>
<stop offset="1" stop-color="#E02C7D"/>
</linearGradient>
<linearGradient id="paint1_linear_4242_400" x1="9.65944" y1="19.7422" x2="21.828" y2="2.59088" gradientUnits="userSpaceOnUse">
<stop stop-color="#E02C7D"/>
<stop offset="0.92" stop-color="#ED77B2"/>
</linearGradient>
<linearGradient id="paint2_linear_4242_400" x1="11.0003" y1="34.9991" x2="11.0003" y2="-11.3171" gradientUnits="userSpaceOnUse">
<stop offset="0.15" stop-color="#ED77B2"/>
<stop offset="0.66" stop-color="#E02C7D"/>
</linearGradient>
<linearGradient id="paint3_linear_4242_400" x1="4.05593" y1="11.0904" x2="15.0068" y2="0.21664" gradientUnits="userSpaceOnUse">
<stop stop-color="white"/>
<stop offset="0.92" stop-color="#ED77B2"/>
</linearGradient>
<linearGradient id="paint4_linear_4242_400" x1="17.0008" y1="-1.50083" x2="28.9999" y2="-1.50083" gradientUnits="userSpaceOnUse">
<stop offset="0.08" stop-color="#ED77B2"/>
<stop offset="1" stop-color="white"/>
</linearGradient>
<linearGradient id="paint5_linear_4242_400" x1="18.8223" y1="27.6513" x2="33.0121" y2="4.13133" gradientUnits="userSpaceOnUse">
<stop offset="0.08" stop-color="#A854C4"/>
<stop offset="1" stop-color="#E02C7D"/>
</linearGradient>
<linearGradient id="paint6_linear_4242_400" x1="22.34" y1="19.0735" x2="34.761" y2="2.51602" gradientUnits="userSpaceOnUse">
<stop stop-color="#E02C7D"/>
<stop offset="0.92" stop-color="#ED77B2"/>
</linearGradient>
<linearGradient id="paint7_linear_4242_400" x1="19.0853" y1="29.2624" x2="27.6147" y2="20.9183" gradientUnits="userSpaceOnUse">
<stop offset="0.08" stop-color="#ED77B2"/>
<stop offset="1" stop-color="#E02C7D"/>
</linearGradient>
</defs>
</svg>
